<?xml version="1.0" encoding="UTF-8"?>
<svg width="258px" height="732px" viewBox="0 0 258 732" version="1.1" xmlns="http://www.w3.org/2000/svg" xmlns:xlink="http://www.w3.org/1999/xlink">
    <!-- Generator: Sketch 52.2 (67145) - http://www.bohemiancoding.com/sketch -->
    <title>header shaper</title>
    <desc>Created with Sketch.</desc>
    <defs>
        <linearGradient x1="76.1578409%" y1="15.8919973%" x2="93.2493266%" y2="20.4012514%" id="linearGradient-1">
            <stop stop-color="#DAF3FF" offset="0%"></stop>
            <stop stop-color="#B8DFF6" offset="100%"></stop>
        </linearGradient>
        <linearGradient x1="47.4720764%" y1="37.2244845%" x2="68.2374702%" y2="19.7126248%" id="linearGradient-2">
            <stop stop-color="#DAF3FF" offset="0%"></stop>
            <stop stop-color="#B8DFF6" offset="100%"></stop>
        </linearGradient>
    </defs>
    <g id="Page-1" stroke="none" stroke-width="1" fill="none" fill-rule="evenodd">
        <g id="Desktop-HD-1920" transform="translate(-1662.000000, -201.000000)" fill-rule="nonzero">
            <g id="Header">
                <g id="header-shaper" transform="translate(1618.000000, 69.000000)">
                    <path d="M575.64351,976.352086 C1001.14351,1056.10209 928.64351,639.267898 928.64351,445.267898 C928.64351,251.267898 792.041948,-48.3102267 530.14351,57.2678983 C345.662698,131.636949 131.64351,251.267898 131.64351,445.267898 C131.64351,639.267898 379.699766,939.627025 575.64351,976.352086 Z" id="Oval" fill="url(#linearGradient-1)" opacity="0.665336682" transform="translate(532.485218, 510.851814) scale(1, -1) rotate(-99.000000) translate(-532.485218, -510.851814) "></path>
                    <path d="M575.64351,936.352086 C1001.14351,1016.10209 928.64351,599.267898 928.64351,405.267898 C928.64351,211.267898 792.041948,-88.3102267 530.14351,17.2678983 C345.662698,91.6369493 131.64351,211.267898 131.64351,405.267898 C131.64351,599.267898 379.699766,899.627025 575.64351,936.352086 Z" id="Oval" fill="url(#linearGradient-2)" transform="translate(532.485218, 470.851814) scale(1, -1) rotate(-99.000000) translate(-532.485218, -470.851814) "></path>
                </g>
            </g>
        </g>
    </g>
</svg>