<?xml version="1.0" encoding="UTF-8"?>
<svg width="184px" height="30px" viewBox="0 0 184 30" version="1.1" xmlns="http://www.w3.org/2000/svg" xmlns:xlink="http://www.w3.org/1999/xlink">
    <!-- Generator: sketchtool 50.2 (55047) - http://www.bohemiancoding.com/sketch -->
    <title>B1254B78-E956-468E-9719-6BE51D930D07</title>
    <desc>Created with sketchtool.</desc>
    <defs></defs>
    <g id="Symbols" stroke="none" stroke-width="1" fill="none" fill-rule="evenodd">
        <g id="Header" transform="translate(-132.000000, -21.000000)" fill="#3B8BE7">
            <g id="header-logo" transform="translate(132.000000, 21.000000)">
                <path d="M45.68,11.592 L45.68,21 L43.456,21 L43.456,11.592 L40.48,11.592 L40.48,9.608 L48.656,9.608 L48.656,11.592 L45.68,11.592 Z M57.512,21 L55.288,16.456 L53.688,16.456 L53.688,21 L51.464,21 L51.464,9.608 L55.928,9.608 C56.5040029,9.608 57.021331,9.7013324 57.48,9.888 C57.938669,10.0746676 58.3279984,10.3253318 58.648,10.64 C58.9680016,10.9546682 59.2106658,11.3226646 59.376,11.744 C59.5413342,12.1653354 59.624,12.6159976 59.624,13.096 C59.624,13.5013354 59.5680006,13.8639984 59.456,14.184 C59.3439994,14.5040016 59.192001,14.7893321 59,15.04 C58.807999,15.2906679 58.5866679,15.5039991 58.336,15.68 C58.0853321,15.8560009 57.8213347,15.9919995 57.544,16.088 L60.088,21 L57.512,21 Z M57.4,13.096 C57.4,12.6479978 57.2533348,12.2853347 56.96,12.008 C56.6666652,11.7306653 56.2746691,11.592 55.784,11.592 L53.688,11.592 L53.688,14.6 L55.784,14.6 C56.2746691,14.6 56.6666652,14.4613347 56.96,14.184 C57.2533348,13.9066653 57.4,13.5440022 57.4,13.096 Z M69.408,21 L68.736,18.984 L64.688,18.984 L64,21 L61.68,21 L65.824,9.608 L67.568,9.608 L71.728,21 L69.408,21 Z M66.752,12.968 L65.312,17.112 L68.144,17.112 L66.752,12.968 Z M80.872,21 L76.36,14.008 L76.36,21 L74.136,21 L74.136,9.608 L76.12,9.608 L80.632,16.584 L80.632,9.608 L82.856,9.608 L82.856,21 L80.872,21 Z M93.872,17.64 C93.872,18.1946694 93.7626678,18.6853312 93.544,19.112 C93.3253322,19.5386688 93.0266686,19.8986652 92.648,20.192 C92.2693314,20.4853348 91.8240026,20.7093326 91.312,20.864 C90.7999974,21.0186674 90.2453363,21.096 89.648,21.096 C88.7839957,21.096 88.0133367,20.9866678 87.336,20.768 C86.6586633,20.5493322 86.0426694,20.1573362 85.488,19.592 L86.928,18.152 C87.2906685,18.5146685 87.7066643,18.7653326 88.176,18.904 C88.6453357,19.0426674 89.146664,19.112 89.68,19.112 C90.3413366,19.112 90.842665,18.9920012 91.184,18.752 C91.525335,18.5119988 91.696,18.162669 91.696,17.704 C91.696,17.2879979 91.5786678,16.9680011 91.344,16.744 C91.2266661,16.6373328 91.0960007,16.554667 90.952,16.496 C90.8079993,16.437333 90.602668,16.3866669 90.336,16.344 L88.96,16.152 C87.9893285,16.0133326 87.2533358,15.6986691 86.752,15.208 C86.2079973,14.6639973 85.936,13.9173381 85.936,12.968 C85.936,12.4559974 86.0266658,11.9893354 86.208,11.568 C86.3893342,11.1466646 86.650665,10.7840015 86.992,10.48 C87.333335,10.1759985 87.7493309,9.93866752 88.24,9.768 C88.7306691,9.59733248 89.2853302,9.512 89.904,9.512 C90.6933373,9.512 91.3813304,9.61333232 91.968,9.816 C92.5546696,10.0186677 93.0933309,10.3599976 93.584,10.84 L92.176,12.232 C91.8133315,11.890665 91.4266687,11.6746671 91.016,11.584 C90.6053313,11.4933329 90.2133352,11.448 89.84,11.448 C89.2426637,11.448 88.8000014,11.5893319 88.512,11.872 C88.2239986,12.1546681 88.08,12.4933314 88.08,12.888 C88.08,13.0373341 88.1066664,13.1813326 88.16,13.32 C88.2133336,13.4586674 88.2986661,13.5866661 88.416,13.704 C88.5333339,13.8106672 88.6799991,13.9039996 88.856,13.984 C89.0320009,14.0640004 89.2373322,14.1199998 89.472,14.152 L90.816,14.344 C91.3386693,14.418667 91.770665,14.5279993 92.112,14.672 C92.453335,14.8160007 92.7466654,14.9999989 92.992,15.224 C93.3013349,15.5120014 93.5253326,15.8586646 93.664,16.264 C93.8026674,16.6693354 93.872,17.1279974 93.872,17.64 Z M104.968,17.496 C104.872,18.0720029 104.701335,18.5839978 104.456,19.032 C104.210665,19.4800022 103.906668,19.8559985 103.544,20.16 C103.181332,20.4640015 102.765336,20.6959992 102.296,20.856 C101.826664,21.0160008 101.320003,21.096 100.776,21.096 C99.5599939,21.096 98.5360042,20.6800042 97.704,19.848 C97.2133309,19.3573309 96.9040006,18.7866699 96.776,18.136 C96.6479994,17.4959968 96.584,16.5520062 96.584,15.304 C96.584,14.0559938 96.6479994,13.1120032 96.776,12.472 C96.9040006,11.8213301 97.2133309,11.2506691 97.704,10.76 C98.5360042,9.92799584 99.5599939,9.512 100.776,9.512 C101.874672,9.512 102.799996,9.82133024 103.552,10.44 C104.304004,11.0586698 104.775999,11.9493275 104.968,13.112 L102.712,13.112 C102.594666,12.6213309 102.381335,12.2293348 102.072,11.936 C101.762665,11.6426652 101.336003,11.496 100.792,11.496 C100.17333,11.496 99.6986683,11.6933314 99.368,12.088 C99.2506661,12.2160006 99.154667,12.3519993 99.08,12.496 C99.005333,12.6400007 98.9493335,12.8266655 98.912,13.056 C98.8746665,13.2853345 98.8480001,13.5786649 98.832,13.936 C98.8159999,14.2933351 98.808,14.7493306 98.808,15.304 C98.808,15.8586694 98.8159999,16.3146649 98.832,16.672 C98.8480001,17.0293351 98.8746665,17.3226655 98.912,17.552 C98.9493335,17.7813345 99.005333,17.9679993 99.08,18.112 C99.154667,18.2560007 99.2506661,18.3919994 99.368,18.52 C99.6986683,18.9146686 100.17333,19.112 100.792,19.112 C101.336003,19.112 101.762665,18.9653348 102.072,18.672 C102.381335,18.3786652 102.594666,17.9866691 102.712,17.496 L104.968,17.496 Z M107.888,21 L107.888,9.608 L115.392,9.608 L115.392,11.592 L110.112,11.592 L110.112,14.264 L114.608,14.264 L114.608,16.248 L110.112,16.248 L110.112,19.016 L115.392,19.016 L115.392,21 L107.888,21 Z M125.304,21 L120.792,14.008 L120.792,21 L118.568,21 L118.568,9.608 L120.552,9.608 L125.064,16.584 L125.064,9.608 L127.288,9.608 L127.288,21 L125.304,21 Z M139.216,14 L139.216,16.528 C139.216,16.9493354 139.184,17.3573314 139.12,17.752 C139.056,18.1466686 138.944001,18.5253315 138.784,18.888 C138.623999,19.2506685 138.384002,19.5919984 138.064,19.912 C137.690665,20.2853352 137.245336,20.5599991 136.728,20.736 C136.210664,20.9120009 135.653336,21 135.056,21 L130.944,21 L130.944,9.608 L135.056,9.608 C135.653336,9.608 136.210664,9.69599912 136.728,9.872 C137.245336,10.0480009 137.690665,10.3226648 138.064,10.696 C138.384002,11.0160016 138.623999,11.3519982 138.784,11.704 C138.944001,12.0560018 139.056,12.4239981 139.12,12.808 C139.184,13.1920019 139.216,13.5893313 139.216,14 Z M136.992,15.256 C136.992,14.8293312 136.986667,14.4586682 136.976,14.144 C136.965333,13.8293318 136.944,13.5546678 136.912,13.32 C136.88,13.0853322 136.832,12.8880008 136.768,12.728 C136.704,12.5679992 136.618667,12.4240006 136.512,12.296 C136.319999,12.0613322 136.090668,11.8853339 135.824,11.768 C135.557332,11.6506661 135.232002,11.592 134.848,11.592 L133.168,11.592 L133.168,19.016 L134.848,19.016 C135.232002,19.016 135.557332,18.9573339 135.824,18.84 C136.090668,18.7226661 136.319999,18.5466678 136.512,18.312 C136.714668,18.0559987 136.845333,17.698669 136.904,17.24 C136.962667,16.781331 136.992,16.1200043 136.992,15.256 Z M142.488,21 L142.488,9.608 L149.992,9.608 L149.992,11.592 L144.712,11.592 L144.712,14.264 L149.208,14.264 L149.208,16.248 L144.712,16.248 L144.712,19.016 L149.992,19.016 L149.992,21 L142.488,21 Z M159.904,21 L155.392,14.008 L155.392,21 L153.168,21 L153.168,9.608 L155.152,9.608 L159.664,16.584 L159.664,9.608 L161.888,9.608 L161.888,21 L159.904,21 Z M173.544,17.496 C173.448,18.0720029 173.277335,18.5839978 173.032,19.032 C172.786665,19.4800022 172.482668,19.8559985 172.12,20.16 C171.757332,20.4640015 171.341336,20.6959992 170.872,20.856 C170.402664,21.0160008 169.896003,21.096 169.352,21.096 C168.135994,21.096 167.112004,20.6800042 166.28,19.848 C165.789331,19.3573309 165.480001,18.7866699 165.352,18.136 C165.223999,17.4959968 165.16,16.5520062 165.16,15.304 C165.16,14.0559938 165.223999,13.1120032 165.352,12.472 C165.480001,11.8213301 165.789331,11.2506691 166.28,10.76 C167.112004,9.92799584 168.135994,9.512 169.352,9.512 C170.450672,9.512 171.375996,9.82133024 172.128,10.44 C172.880004,11.0586698 173.351999,11.9493275 173.544,13.112 L171.288,13.112 C171.170666,12.6213309 170.957335,12.2293348 170.648,11.936 C170.338665,11.6426652 169.912003,11.496 169.368,11.496 C168.74933,11.496 168.274668,11.6933314 167.944,12.088 C167.826666,12.2160006 167.730667,12.3519993 167.656,12.496 C167.581333,12.6400007 167.525334,12.8266655 167.488,13.056 C167.450666,13.2853345 167.424,13.5786649 167.408,13.936 C167.392,14.2933351 167.384,14.7493306 167.384,15.304 C167.384,15.8586694 167.392,16.3146649 167.408,16.672 C167.424,17.0293351 167.450666,17.3226655 167.488,17.552 C167.525334,17.7813345 167.581333,17.9679993 167.656,18.112 C167.730667,18.2560007 167.826666,18.3919994 167.944,18.52 C168.274668,18.9146686 168.74933,19.112 169.368,19.112 C169.912003,19.112 170.338665,18.9653348 170.648,18.672 C170.957335,18.3786652 171.170666,17.9866691 171.288,17.496 L173.544,17.496 Z M176.464,21 L176.464,9.608 L183.968,9.608 L183.968,11.592 L178.688,11.592 L178.688,14.264 L183.184,14.264 L183.184,16.248 L178.688,16.248 L178.688,19.016 L183.968,19.016 L183.968,21 L176.464,21 Z" id="TRANSCENDENCE"></path>
                <g id="Group-21">
                    <path d="M15,30 C6.71572875,30 0,23.2842712 0,15 C0,6.71572875 6.71572875,0 15,0 C23.2842712,0 30,6.71572875 30,15 C30,23.2842712 23.2842712,30 15,30 Z M10.7142103,11.7690172 C10.7142103,12.7940124 11.1579852,13.7180824 12.0244681,14.5622615 C12.6248227,15.1472903 13.376494,15.6642103 14.5417955,16.3089237 C14.6029324,16.3426467 14.6029324,16.3426467 14.7095826,16.4007357 C14.8302954,16.4663402 14.9881427,16.5515323 15.1855773,16.6577099 C15.3837568,16.7642814 15.888083,17.0347168 15.9063068,17.044601 C16.4011465,17.3138341 16.726276,17.5068608 16.9835447,17.6850263 C17.0515539,17.7322855 17.1141202,17.7780818 17.1712015,17.8223592 C17.9595226,18.4363801 18.406312,19.4276173 18.5058934,20.8256266 L11.4743254,20.8256266 C11.4422852,19.6619373 11.8762189,18.6584747 12.7988636,17.7647059 L12.9116484,17.6554509 L11.7748604,16.4935056 L11.6631873,16.6016747 C10.1858756,18.0326328 9.59983029,19.7846225 9.93572946,21.7715478 L10.0279122,22.3176729 L10.0498966,22.4479167 L20.1410135,22.4479167 L20.1545498,21.6507156 C20.1942896,19.3236243 19.5365716,17.6049998 18.1743262,16.544073 C18.0930709,16.4810018 18.00653,16.4176203 17.9141203,16.3534603 C17.6953208,16.2018731 17.45028,16.0497887 17.1417275,15.8735659 L16.4838647,15.5115857 C16.3670262,15.4489365 16.3660951,15.4484372 16.2107103,15.3643138 C16.1859119,15.3504278 16.1859119,15.3504278 16.1471876,15.3288344 C16.0486654,15.2739827 16.0486654,15.2739827 15.8938315,15.1879597 C15.6686198,15.0628741 15.3306224,14.8753555 14.8798271,14.6253972 C14.8188066,14.5962197 14.7758382,14.5719858 14.6959782,14.5237506 L14.5589496,14.4480464 C13.0023867,13.4832982 12.3432801,12.6862503 12.3432801,11.7690172 C12.3432801,10.2584351 13.4156041,9.17451282 14.9518686,9.17451282 C16.4878922,9.17451282 17.5601769,10.2584735 17.5601769,11.7690172 C17.5601769,12.3518787 17.3037274,12.8411068 16.7323942,13.3448099 L16.6146087,13.4486529 L17.6954173,14.6624209 L17.8120422,14.5596179 C18.7272406,13.7528855 19.1892466,12.8389671 19.1892466,11.7690172 C19.1892466,9.36751158 17.3939328,7.55208333 14.9518686,7.55208333 C12.5096608,7.55208333 10.7142103,9.36751759 10.7142103,11.7690172 Z" id="Oval-6"></path>
                </g>
            </g>
        </g>
    </g>
</svg>