<svg width="241" height="43" viewBox="0 0 241 43" fill="none" xmlns="http://www.w3.org/2000/svg">
<g id="Five2one">
<path id="Fill-1" fill-rule="evenodd" clip-rule="evenodd" d="M10.8416 0C10.336 0 9.83854 0.0701863 9.55273 0.135174C5.92511 0.252151 3.25661 1.95222 1.65441 5.1002C0.621092 6.71189 0.0632085 8.82008 0 11.3286V41.059C0 41.5841 0.453452 42 1.00584 42H4.92752C5.4799 42 5.92511 41.5841 5.92511 41.059V18.9321H12.125C12.6747 18.9321 13.1281 18.511 13.1281 17.9703V14.8249C13.1281 14.305 12.6747 13.8683 12.125 13.8683H5.94984L5.9416 12.0642C6.483 7.77768 7.6922 6.34536 8.58262 5.89045C10.1299 5.19899 11.6606 5.26917 13.315 6.09061C13.5651 6.22578 13.8674 6.24138 14.1422 6.1452C14.417 6.04122 14.6314 5.83846 14.7193 5.58891C15.2168 4.29176 15.618 3.29616 15.9285 2.5553C16.1099 2.13938 15.9368 1.63248 15.5136 1.39853C13.8921 0.470508 12.3257 0 10.8416 0Z" fill="black"/>
<path id="Fill-3" fill-rule="evenodd" clip-rule="evenodd" d="M24.0322 1.01517C23.3623 1.67939 23 2.53534 23 3.4826C23 4.44127 23.3464 5.28353 24.0254 5.96601C24.7021 6.64392 25.5293 7 26.4886 7C27.4411 7 28.2728 6.64392 28.9587 5.96601C29.6536 5.28353 30 4.44127 30 3.4826C30 2.53534 29.6377 1.67939 28.9587 1.01517C27.5869 -0.345228 25.3743 -0.331533 24.0322 1.01517Z" fill="black"/>
<path id="Fill-5" fill-rule="evenodd" clip-rule="evenodd" d="M27.9856 11H24.0228C23.4527 11 23 11.4139 23 11.9299V40.0752C23 40.5861 23.4527 41 24.0228 41H27.9856C28.5389 41 29 40.5861 29 40.0752V11.9299C29 11.4139 28.5389 11 27.9856 11Z" fill="black"/>
<path id="Fill-7" fill-rule="evenodd" clip-rule="evenodd" d="M63.0457 11H59.0774C58.7062 11 58.3742 11.2121 58.2043 11.5417L49.5176 30.1687L40.7498 11.5417C40.6061 11.2121 40.2584 11 39.8872 11H35.9529C35.6235 11 35.3255 11.1482 35.1504 11.4293C34.97 11.6924 34.9543 12.0246 35.0903 12.3236L48.3412 40.4736C48.5007 40.8033 48.8379 41 49.2117 41H49.8705C50.2443 41 50.5737 40.8033 50.7436 40.4583L63.9188 12.3236C64.0521 12.0246 64.0181 11.6924 63.8403 11.4293C63.673 11.1482 63.3672 11 63.0457 11Z" fill="black"/>
<path id="Fill-9" fill-rule="evenodd" clip-rule="evenodd" d="M71.3849 15.9758C74.2632 11.9964 78.1449 10 82.9503 10C87.8626 10 91.8485 12.0474 94.8088 16.1154C96.9048 18.9597 97.9826 22.5581 98 26.7925C98 27.0555 97.9106 27.2996 97.7343 27.4741C97.5654 27.6646 97.3295 27.7692 97.0911 27.7692H73.4834C73.707 30.5143 74.6233 32.8059 76.2227 34.593C78.0232 36.6109 80.1788 37.5984 82.8237 37.5984C84.1002 37.5984 85.3618 37.3596 86.5762 36.8524C87.7831 36.3828 88.8187 35.7415 89.6482 34.9445C90.5 34.1637 91.4462 32.8247 92.4843 30.9812C92.7252 30.5304 93.2566 30.3748 93.6912 30.6163L96.6167 32.3202C97.0488 32.5617 97.2276 33.136 97.0091 33.6216C96.0132 35.7764 94.8237 37.5501 93.4578 38.9052C92.0993 40.2227 90.5546 41.2478 88.8584 41.9615C87.1647 42.6538 85.2351 43 83.1192 43C78.4081 43 74.6705 41.2987 71.9859 37.9284C69.3435 34.593 68 30.7934 68 26.6047C68 22.6413 69.1399 19.0671 71.3849 15.9758ZM76.6672 18.144C75.6291 19.1717 74.7848 20.6449 74.1416 22.5581H92.0497C91.6474 21.2191 91.1258 20.127 90.5 19.2737C89.6954 18.195 88.6026 17.2934 87.2591 16.6172C85.9007 15.941 84.4627 15.5894 82.9752 15.5894C80.4992 15.5894 78.4503 16.4267 76.6672 18.144Z" fill="black"/>
<path id="Fill-11" fill-rule="evenodd" clip-rule="evenodd" d="M133.024 37.2372H116.975L125.257 28.791C128.427 25.3875 130.59 22.6377 131.705 20.6051C132.858 18.5089 133.438 16.2186 133.438 13.8115C133.438 10.3894 132.208 7.34729 129.785 4.83388C127.351 2.28593 124.115 1 120.184 1C116.236 1 112.88 2.37361 110.171 5.04378C107.478 7.72191 106.058 11.1971 105.937 15.379C105.929 15.6341 106.034 15.8918 106.223 16.0645C106.403 16.2558 106.649 16.3568 106.916 16.3568H110.759C111.267 16.3568 111.695 15.9795 111.727 15.4827C111.944 12.677 112.811 10.4957 114.324 8.98128C115.841 7.46685 117.683 6.72824 119.967 6.72824C122.142 6.72824 123.925 7.42966 125.423 8.85906C126.902 10.2858 127.622 11.9384 127.622 13.8992C127.622 15.4827 127.196 17.013 126.365 18.4398C125.493 19.9356 123.511 22.3454 120.481 25.5762L105.279 41.3634C105.001 41.6397 104.924 42.0541 105.079 42.4128C105.229 42.7609 105.592 43 105.98 43H133.024C133.569 43 134 42.5669 134 42.0382V38.2203C134 37.6676 133.569 37.2372 133.024 37.2372Z" fill="#FF1744"/>
<path id="Fill-13" fill-rule="evenodd" clip-rule="evenodd" d="M142.229 15.2782C145.345 11.7683 149.301 10 154.004 10C158.699 10 162.663 11.7522 165.771 15.2433C168.591 18.4392 170 22.263 170 26.602C170 30.9651 168.497 34.8211 165.535 38.068C162.545 41.3363 158.665 43 154.004 43C149.327 43 145.445 41.3363 142.457 38.068C139.495 34.805 138 30.949 138 26.602C138 22.2791 139.419 18.4741 142.229 15.2782ZM148.842 36.0877C151.992 37.9123 156.11 37.8775 159.208 36.0877C160.764 35.1834 162.002 33.8658 162.902 32.1995C163.828 30.4794 164.295 28.6172 164.295 26.6583C164.295 23.602 163.293 21.0474 161.246 18.8766C159.208 16.7218 156.832 15.678 154.004 15.678C151.16 15.678 148.8 16.7218 146.761 18.8766C144.715 21.0474 143.713 23.602 143.713 26.6583C143.713 28.6172 144.172 30.4794 145.106 32.1807C146.014 33.8658 147.273 35.1834 148.842 36.0877Z" fill="black"/>
<path id="Fill-15" fill-rule="evenodd" clip-rule="evenodd" d="M200.812 16.9638C199.992 14.8291 198.605 13.1252 196.694 11.8631C194.809 10.6201 192.729 10 190.529 10H190.088C190.058 10 190.031 10.0082 189.999 10.0082C189.969 10.0082 189.942 10 189.912 10H189.471C187.271 10 185.191 10.6201 183.306 11.8631C181.395 13.1252 180.008 14.8291 179.188 16.9638C178.394 19.0409 178 22.1497 178 26.463V42.0067C178 42.5555 178.409 43 178.908 43H182.391C182.897 43 183.296 42.5555 183.296 42.0067V27.6044C183.296 23.3762 183.507 21.5789 183.676 20.8326C184.038 19.0738 184.702 17.8885 185.731 17.1916C186.684 16.5358 188.169 16.2203 189.999 16.1434C191.831 16.2203 193.319 16.5358 194.271 17.1916C195.298 17.8885 195.965 19.0738 196.324 20.8326C196.495 21.5789 196.704 23.3762 196.704 27.6044V42.0067C196.704 42.5555 197.103 43 197.609 43H201.092C201.591 43 202 42.5555 202 42.0067V26.463C202 22.1497 201.606 19.0409 200.812 16.9638Z" fill="black"/>
<g id="Group-19">
<g id="Fill-17 Clipped">
<mask id="mask0" mask-type="alpha" maskUnits="userSpaceOnUse" x="210" y="9" width="31" height="34">
<path id="path-1" fill-rule="evenodd" clip-rule="evenodd" d="M240.575 42.0275V9.21484H210.331V42.0275H240.575Z" fill="white"/>
</mask>
<g mask="url(#mask0)">
<path id="Fill-17" fill-rule="evenodd" clip-rule="evenodd" d="M225.404 9.21484C230.349 9.21484 234.374 11.2506 237.359 15.2955C239.472 18.1237 240.561 21.7017 240.576 25.912C240.576 26.1735 240.468 26.4163 240.301 26.5897C240.13 26.7791 239.903 26.8832 239.66 26.8832H215.852C216.085 29.6127 217.001 31.8913 218.614 33.6682C220.429 35.6747 222.617 36.6565 225.276 36.6565C226.565 36.6565 227.837 36.4191 229.052 35.9148C230.276 35.4479 231.32 34.8102 232.156 34.0178C233.007 33.2413 233.971 31.9099 235.008 30.0769C235.261 29.6287 235.794 29.4739 236.215 29.7141L239.189 31.4083C239.62 31.6485 239.79 32.2194 239.57 32.7024C238.573 34.8449 237.374 36.6085 235.997 37.9559C234.627 39.266 233.063 40.2852 231.363 40.9949C229.652 41.6833 227.707 42.0275 225.576 42.0275C220.827 42.0275 217.041 40.3359 214.342 36.9847C211.678 33.6682 210.331 29.8902 210.331 25.7252C210.331 21.7844 211.473 18.2304 213.744 15.1568C216.628 11.1999 220.559 9.21484 225.404 9.21484ZM219.077 17.3126C218.015 18.3345 217.164 19.7993 216.516 21.7017H234.58C234.172 20.3703 233.646 19.2844 233.015 18.4359C232.206 17.3633 231.102 16.4668 229.74 15.7944C228.378 15.1221 226.928 14.7726 225.431 14.7726C222.943 14.7726 220.86 15.605 219.077 17.3126Z" fill="black"/>
</g>
</g>
</g>
</g>
</svg>
