<?xml version="1.0" encoding="utf-8"?>
<!-- Generator: Adobe Illustrator 22.1.0, SVG Export Plug-In . SVG Version: 6.00 Build 0)  -->
<svg version="1.1" id="Layer_1" xmlns="http://www.w3.org/2000/svg" xmlns:xlink="http://www.w3.org/1999/xlink" x="0px" y="0px"
	 viewBox="0 0 80 80" style="enable-background:new 0 0 80 80;" xml:space="preserve">
<style type="text/css">
	.st0{fill:#1E2739;}
</style>
<g>
	<path class="st0" d="M70.1,69.3l-14-14c4.9-4.9,8-11.7,8-19.2C64.1,21.2,51.9,9,37,9S9.9,21.2,9.9,36.1S22,63.2,37,63.2
		c6.6,0,12.7-2.4,17.4-6.3L68.4,71L70.1,69.3z M12.3,36.1c0-13.6,11.1-24.7,24.7-24.7s24.7,11.1,24.7,24.7S50.6,60.8,37,60.8
		S12.3,49.7,12.3,36.1z"/>
	<path class="st0" d="M41.9,37.6c-0.9-0.8-2.1-1.5-3.4-2.2c-2.7-1.5-5.5-3.1-5.5-5.6c0-2.5,1.6-4.2,4.1-4.2c2.6,0,3.8,2.4,3.8,4
		c0,1.2-0.3,1.7-0.7,2.1l-0.5,0.5l1.7,1.7l0.6-0.6l0.1-0.1c0.6-0.8,1.3-1.8,1.3-3.7c0-3.1-2.4-6.4-6.2-6.4c-3.7,0-6.5,2.8-6.5,6.6
		c0,3.8,3.7,6,6.8,7.6c1.2,0.7,2.3,1.3,3,1.9c1.4,1.3,1.8,3.5,1.9,4.8H31.7C31.6,41.6,33,40,33,40l0.6-0.7l-1.8-1.6l-0.6,0.6
		c-0.3,0.3-2.6,2.9-1.9,7.3l0.2,1h15.1l0.1-1.1C44.7,45.3,45,40.3,41.9,37.6z"/>
</g>
</svg>
