<?xml version="1.0" encoding="utf-8"?>
<!-- Generator: Adobe Illustrator 22.1.0, SVG Export Plug-In . SVG Version: 6.00 Build 0)  -->
<svg version="1.1" id="Layer_1" xmlns="http://www.w3.org/2000/svg" xmlns:xlink="http://www.w3.org/1999/xlink" x="0px" y="0px"
	 viewBox="0 0 80 80" style="enable-background:new 0 0 80 80;" xml:space="preserve">
<style type="text/css">
	.st0{fill:#1E2739;}
</style>
<g>
	<path class="st0" d="M53.3,0.6H10.8v78.8h58.4V16.5L53.3,0.6z M54,4.7l11.1,11.1H54V4.7z M13.2,77V3h38.4v15.2h15.2V77H13.2z"/>
	<polygon class="st0" points="55.7,25.5 53.3,25.5 53.3,65 45.3,65 45.3,34.7 42.8,34.7 42.8,65 35.6,65 35.6,47 33.2,47 33.2,65 
		25.8,65 25.8,56.3 23.4,56.3 23.4,65 19.9,65 19.9,67.4 60.1,67.4 60.1,65 55.7,65 	"/>
</g>
</svg>
