<?xml version="1.0" encoding="utf-8"?>
<!-- Generator: Adobe Illustrator 22.1.0, SVG Export Plug-In . SVG Version: 6.00 Build 0)  -->
<svg version="1.1" id="Layer_1" xmlns="http://www.w3.org/2000/svg" xmlns:xlink="http://www.w3.org/1999/xlink" x="0px" y="0px"
	 viewBox="0 0 80 80" style="enable-background:new 0 0 80 80;" xml:space="preserve">
<style type="text/css">
	.st0{fill:#1E2739;}
</style>
<g>
	<path class="st0" d="M53.3,0.6H10.8v78.8h58.4V16.5L53.3,0.6z M54,4.7l11.1,11.1H54V4.7z M13.2,77V3h38.4v15.2h15.2V77H13.2z"/>
	<rect x="22.2" y="53.8" class="st0" width="36" height="2.4"/>
	<rect x="22.2" y="63.4" class="st0" width="36" height="2.4"/>
	<path class="st0" d="M40,46c6.9,0,12.5-5.6,12.5-12.5S46.9,21,40,21s-12.5,5.6-12.5,12.5S33.1,46,40,46z M40,43.6
		c-4.2,0-7.8-2.6-9.4-6.2l2.3-0.8l4.5,1.9l5-6.9l4.2,1.5l3.2-2.2c0.2,0.8,0.3,1.7,0.3,2.6C50.1,39.1,45.6,43.6,40,43.6z M40,23.4
		c3.8,0,7.2,2.1,8.9,5.3l-2.6,1.8l-4.7-1.7l-4.9,6.8L33,34l-3,1.1c-0.1-0.5-0.1-1-0.1-1.6C29.9,27.9,34.4,23.4,40,23.4z"/>
</g>
</svg>
