<?xml version="1.0" encoding="utf-8"?>
<!-- Generator: Adobe Illustrator 22.1.0, SVG Export Plug-In . SVG Version: 6.00 Build 0)  -->
<svg version="1.1" id="Layer_1" xmlns="http://www.w3.org/2000/svg" xmlns:xlink="http://www.w3.org/1999/xlink" x="0px" y="0px"
	 viewBox="0 0 80 80" style="enable-background:new 0 0 80 80;" xml:space="preserve">
<style type="text/css">
	.st0{fill:#1E2739;}
</style>
<g>
	<path class="st0" d="M53.3,0.6H10.8v78.8h58.4V16.5L53.3,0.6z M54,4.7l11.1,11.1H54V4.7z M13.2,77V3h38.4v15.2h15.2V77H13.2z"/>
	<rect x="22.2" y="46.8" class="st0" width="9.5" height="2.4"/>
	<rect x="22.2" y="56.4" class="st0" width="9.5" height="2.4"/>
	<rect x="22.2" y="27" class="st0" width="36" height="2.4"/>
	<rect x="22.2" y="36.6" class="st0" width="36" height="2.4"/>
	<path class="st0" d="M58,56.2c0-6-4.9-10.8-10.8-10.8c-6,0-10.8,4.9-10.8,10.8s4.9,10.8,10.8,10.8c2.4,0,4.6-0.8,6.4-2.1l6.1,6.1
		l1.7-1.7l-6.1-6.1C57,61.5,58,59,58,56.2z M38.7,56.2c0-4.7,3.8-8.4,8.4-8.4c4.7,0,8.4,3.8,8.4,8.4s-3.8,8.4-8.4,8.4
		C42.5,64.7,38.7,60.9,38.7,56.2z"/>
</g>
</svg>
