<?xml version="1.0" encoding="utf-8"?>
<!-- Generator: Adobe Illustrator 22.1.0, SVG Export Plug-In . SVG Version: 6.00 Build 0)  -->
<svg version="1.1" id="Layer_1" xmlns="http://www.w3.org/2000/svg" xmlns:xlink="http://www.w3.org/1999/xlink" x="0px" y="0px"
	 viewBox="0 0 80 80" style="enable-background:new 0 0 80 80;" xml:space="preserve">
<style type="text/css">
	.st0{fill:#1E2739;}
</style>
<g>
	<path class="st0" d="M79.2,5.2H0.8v2.4h3.8v49.1h34.2v9.1l-14.6,11l1.4,1.9L40,67.9l14.3,10.8l1.4-1.9l-14.6-11v-9.1h34.2V7.6h3.8
		V5.2z M73,54.4H7V7.7H73V54.4z"/>
	<path class="st0" d="M21.5,35.1l-1.6-1.6l-0.1,0.1c-2.3,2.2-3.2,4.9-2.7,7.9l0.2,0.9h15.5l0-1.1c0.1-3.6-1-6.2-3-7.8
		c-0.1-0.1-0.3-0.2-0.4-0.3c-0.3-0.2-0.7-0.5-1.2-0.7l-3.5-1.9c-0.1,0-0.2-0.1-0.3-0.2l-0.2-0.1c-2.5-1.5-3.5-2.8-3.5-4.3
		c0-2.5,1.7-4.2,4.2-4.2c2.5,0,4.2,1.7,4.2,4.2c0,1-0.4,1.7-1.3,2.6l-0.1,0.1l1.5,1.7l0.1-0.1c1.4-1.2,2.1-2.6,2.1-4.2
		c0-3.7-2.8-6.4-6.5-6.4c-3.7,0-6.5,2.8-6.5,6.4c0,1.6,0.7,2.9,2,4.3c0.9,0.9,2.1,1.7,3.9,2.7l0.3,0.1c0.2,0.1,0.4,0.2,0.7,0.4
		l1.1,0.6c0.8,0.4,1.3,0.7,1.7,1c0.1,0.1,0.2,0.1,0.3,0.2c1.3,1,2,2.6,2.1,4.8l0,0.1H19.3l0-0.1C19.3,38.2,19.9,36.6,21.5,35.1
		L21.5,35.1z"/>
	<rect x="40" y="25.4" class="st0" width="26.2" height="2.4"/>
	<rect x="40" y="35" class="st0" width="26.2" height="2.4"/>
</g>
</svg>
