<?xml version="1.0" encoding="utf-8"?>
<!-- Generator: Adobe Illustrator 22.1.0, SVG Export Plug-In . SVG Version: 6.00 Build 0)  -->
<svg version="1.1" id="Layer_1" xmlns="http://www.w3.org/2000/svg" xmlns:xlink="http://www.w3.org/1999/xlink" x="0px" y="0px"
	 viewBox="0 0 80 80" style="enable-background:new 0 0 80 80;" xml:space="preserve">
<style type="text/css">
	.st0{fill:#1E2739;}
</style>
<g>
	<path class="st0" d="M53.3,0.6H10.8v78.8h58.4V16.5L53.3,0.6z M54,4.7l11.1,11.1H54V4.7z M13.2,77V3h38.4v15.2h15.2V77H13.2z"/>
	<path class="st0" d="M39.5,46.9c6.2,0,11.3-5.1,11.3-11.3c0-1.7-0.4-3.3-1.1-4.8l5-5l-1.7-1.7l-4.6,4.6c-2.1-2.7-5.3-4.5-9-4.5
		c-6.2,0-11.3,5.1-11.3,11.3S33.2,46.9,39.5,46.9z M39.5,26.7c3,0,5.7,1.5,7.3,3.8l-7.1,7.1l-4.1-4.1l-1.7,1.7l5.8,5.8l8.2-8.2
		c0.3,0.9,0.5,1.9,0.5,2.9c0,4.9-4,8.9-8.9,8.9c-4.9,0-8.9-4-8.9-8.9C30.5,30.7,34.6,26.7,39.5,26.7z"/>
	<rect x="22.2" y="53.8" class="st0" width="36" height="2.4"/>
	<rect x="22.2" y="63.4" class="st0" width="36" height="2.4"/>
</g>
</svg>
