<?xml version="1.0" encoding="UTF-8"?>
<svg width="16px" height="11px" viewBox="0 0 16 11" version="1.1" xmlns="http://www.w3.org/2000/svg" xmlns:xlink="http://www.w3.org/1999/xlink">
    <!-- Generator: Sketch 52.2 (67145) - http://www.bohemiancoding.com/sketch -->
    <title>Path</title>
    <desc>Created with Sketch.</desc>
    <g id="Symbols" stroke="none" stroke-width="1" fill="none" fill-rule="evenodd">
        <g id="instructions-icon" transform="translate(-7.000000, 0.000000)" fill="#C5C5C5">
            <g id="Path">
                <path d="M21.1514974,3.9637117 L12.216815,3.9637117 L13.7838964,2.39663022 C14.1948075,1.98501671 14.1948075,1.31842759 13.7838964,0.906814072 L13.1861437,0.308358929 C12.9887659,0.110981118 12.7204445,-1.24344979e-14 12.4408844,-1.24344979e-14 C12.1613244,-1.24344979e-14 11.8937054,0.110981118 11.6956252,0.308358929 L7.30835893,4.69562515 C7.11098112,4.89300296 7,5.1613244 7,5.44088443 C7,5.72044447 7.11098112,5.98806349 7.30835893,6.18614371 L11.6956252,10.5734099 C11.893003,10.7707877 12.1613244,10.8817689 12.4408844,10.8817689 C12.7204445,10.8817689 12.9887659,10.7707877 13.1861437,10.5734099 L13.7845989,9.97495479 C14.19551,9.56334128 14.19551,8.89604975 13.7845989,8.48513865 L12.2182198,6.91805716 L21.1521998,6.91805716 C21.733797,6.91805716 22.205818,6.44673862 22.205818,5.86443895 L22.205818,5.01803233 C22.2051156,4.43503025 21.7330946,3.9637117 21.1514974,3.9637117 Z"></path>
            </g>
        </g>
    </g>
</svg>