<?xml version="1.0" encoding="UTF-8"?>
<svg width="13px" height="22px" viewBox="0 0 13 22" version="1.1" xmlns="http://www.w3.org/2000/svg" xmlns:xlink="http://www.w3.org/1999/xlink">
    <!-- Generator: Sketch 52.2 (67145) - http://www.bohemiancoding.com/sketch -->
    <title>bitcointalk-white</title>
    <desc>Created with Sketch.</desc>
    <g id="Page-1" stroke="none" stroke-width="1" fill="none" fill-rule="evenodd">
        <g id="Desktop-HD-1920" transform="translate(-403.000000, -704.000000)" fill="#4A4A4A" fill-rule="nonzero">
            <g id="Header">
                <g id="social-icons" transform="translate(275.000000, 703.000000)">
                    <path d="M136.63637,11.7502491 L136.63637,11.6298932 C137.750676,11.4290747 138.5979,10.9909253 139.179395,10.3127402 C139.76089,9.63590747 140.050961,8.77651246 140.050961,7.733879 C140.050961,6.22740214 139.529644,5.12459075 138.487687,4.42679715 C137.446406,3.72967972 135.758719,3.38078292 133.425979,3.38078292 L133.879004,3.38078292 L133.879004,1.35231317 L132.52669,1.35231317 L132.52669,3.38078292 L131.174377,3.38078292 L131.174377,1.35231317 L129.822064,1.35231317 L129.822064,3.38078292 L128.469751,3.38078292 L128.469751,20.9608541 L129.822064,20.9608541 L129.822064,22.9893238 L131.174377,22.9893238 L131.174377,20.9608541 L132.52669,20.9608541 L132.52669,22.9893238 L133.879004,22.9893238 L133.879004,20.9608541 L134.592349,20.9608541 C136.499786,20.9608541 137.985302,20.5193238 139.047544,19.6382918 C140.109786,18.7565836 140.640569,17.5300356 140.640569,15.9586477 C140.640569,13.6103559 139.305836,12.2066548 136.63637,11.7502491 Z M133.509822,5.14825623 C135.048754,5.14825623 136.171174,5.3666548 136.876406,5.80412811 C137.581637,6.24092527 137.934591,6.95224199 137.934591,7.93807829 C137.934591,9.01181495 137.617473,9.77587189 136.984591,10.229573 C136.351708,10.6819217 135.313132,10.9084342 133.870214,10.9084342 L130.498221,10.9084342 L130.50363,5.14893238 L133.509822,5.14893238 L133.509822,5.14825623 Z M137.376085,18.3928114 C136.658683,18.9425267 135.590356,19.2170463 134.171779,19.2170463 L130.504306,19.2170463 L130.504306,12.639395 L134.003416,12.639395 C135.502456,12.639395 136.61879,12.8956584 137.35242,13.4088612 C138.08605,13.9220641 138.452527,14.7233096 138.452527,15.8139502 C138.451851,16.9843772 138.093488,17.8444484 137.376085,18.3928114 Z" id="bitcointalk-white"></path>
                </g>
            </g>
        </g>
    </g>
</svg>