<?xml version="1.0" encoding="UTF-8"?>
<svg width="22px" height="22px" viewBox="0 0 22 22" version="1.1" xmlns="http://www.w3.org/2000/svg" xmlns:xlink="http://www.w3.org/1999/xlink">
    <!-- Generator: Sketch 52.2 (67145) - http://www.bohemiancoding.com/sketch -->
    <title>github-white</title>
    <desc>Created with Sketch.</desc>
    <g id="Page-1" stroke="none" stroke-width="1" fill="none" fill-rule="evenodd">
        <g id="Desktop-HD-1920" transform="translate(-633.000000, -704.000000)" fill="#4A4A4A">
            <g id="Header">
                <g id="social-icons" transform="translate(275.000000, 703.000000)">
                    <path d="M369.181495,1.35231317 C363.231317,1.35231317 358.362989,6.34300195 358.362989,12.4427327 C358.362989,17.3641063 361.47331,21.5230136 365.733096,22.9786312 C366.274021,23.0479463 366.476868,22.7706858 366.476868,22.4241102 C366.476868,22.1468497 366.476868,21.4536985 366.476868,20.5526019 C363.434164,21.2457532 362.825623,19.0969844 362.825623,19.0969844 C362.352313,17.8493122 361.608541,17.5027366 361.608541,17.5027366 C360.594306,16.8095854 361.676157,16.8095854 361.676157,16.8095854 C362.758007,16.8789005 363.366548,17.9186273 363.366548,17.9186273 C364.313167,19.5821902 365.868327,19.0969844 366.544484,18.8197239 C366.6121,18.1265727 366.950178,17.6413668 367.220641,17.3641063 C364.786477,17.0868458 362.284698,16.1164341 362.284698,11.8882117 C362.284698,10.7098546 362.690391,9.6701278 363.366548,8.90766146 C363.231317,8.63040097 362.893238,7.52135902 363.501779,5.99642634 C363.501779,5.99642634 364.380783,5.71916585 366.476868,7.10546829 C367.355872,6.8282078 368.234875,6.75889268 369.181495,6.75889268 C370.128114,6.75889268 371.007117,6.89752292 371.886121,7.10546829 C373.982206,5.64985073 374.86121,5.92711121 374.86121,5.92711121 C375.469751,7.4520439 375.064057,8.56108585 374.996441,8.83834634 C375.672598,9.60081268 376.078292,10.5712244 376.078292,11.8188966 C376.078292,16.047119 373.576512,17.0175307 371.142349,17.2947912 C371.548043,17.6413668 371.886121,18.334518 371.886121,19.3742449 C371.886121,20.8298624 371.886121,22.0775346 371.886121,22.4241102 C371.886121,22.7013707 372.088968,23.0479463 372.629893,22.9786312 C376.88968,21.5230136 380,17.3641063 380,12.4427327 C380,6.34300195 375.131673,1.35231317 369.181495,1.35231317 Z" id="github-white"></path>
                </g>
            </g>
        </g>
    </g>
</svg>