<?xml version="1.0" encoding="UTF-8"?>
<svg width="41px" height="49px" viewBox="0 0 41 49" version="1.1" xmlns="http://www.w3.org/2000/svg" xmlns:xlink="http://www.w3.org/1999/xlink">
    <!-- Generator: Sketch 52.2 (67145) - http://www.bohemiancoding.com/sketch -->
    <title>Path</title>
    <desc>Created with Sketch.</desc>
    <g id="Symbols" stroke="none" stroke-width="1" fill="none" fill-rule="evenodd">
        <g id="instructions-icon" transform="translate(0.000000, -22.000000)" fill="#C5C5C5">
            <g id="Path">
                <path d="M36.407426,45.5357236 C35.3840115,45.5357236 34.472983,45.9346937 33.8457289,46.6609878 L28.4582278,52.8520484 C28.3598901,52.9623271 28.2074667,53.0037694 28.0690915,52.9524933 C27.9328236,52.9005148 27.8401052,52.7691638 27.8401052,52.6216572 L27.8401052,25.033718 C27.8401052,23.3605723 26.4809377,22 24.8091968,22 C23.1374559,22 21.7761812,23.3612747 21.7761812,25.033718 L21.7354412,42.610177 C21.7354412,42.7050026 21.6968086,42.7956138 21.6300794,42.8602357 C21.5640527,42.9248576 21.4762512,42.9606807 21.3842352,42.9606807 L20.4577536,42.94593 C20.2666975,42.9431204 20.1121668,42.7850776 20.1121668,42.5947239 C20.1121668,40.9215782 18.7515945,39.5610059 17.080556,39.5610059 C15.4074103,39.5610059 14.046838,40.9222806 14.046838,42.5947239 C14.046838,42.7878873 13.8894976,42.94593 13.6956319,42.94593 L13.4406563,42.94593 C13.247493,42.94593 13.0894502,42.7878873 13.0894502,42.5947239 C13.0894502,40.9215782 11.7288779,39.5610059 10.0578394,39.5610059 C8.38469371,39.5610059 7.0241214,40.9222806 7.0241214,42.5947239 C7.0241214,42.6881447 6.98689355,42.7773511 6.92156922,42.8433778 C6.85484007,42.9094046 6.76563373,42.94593 6.67291533,42.94593 L6.4165349,42.94593 C6.25427769,42.94593 6.11098561,42.8321392 6.07586501,42.6719893 L6.051983,42.5680323 C5.78295915,41.3823606 5.37696493,39.5926144 3.02950356,39.5610059 C1.34090477,39.5610059 -2.13162821e-14,40.9222806 -2.13162821e-14,42.5940215 L-2.13162821e-14,61.9946448 C-2.13162821e-14,65.9000563 1.53687776,70.0723844 5.84687865,70.0723844 L20.6410831,70.0723844 C22.0430978,70.0723844 23.0559761,70.0723844 24.3638675,69.1992861 C25.1280919,68.6872277 25.5572657,68.3402361 26.2407127,67.513497 L39.8436262,51.8749931 C41.1220163,50.4027373 40.8178718,48.0356084 39.1643937,46.5970683 C38.3748824,45.9122165 37.3964223,45.5357236 36.407426,45.5357236 Z"></path>
            </g>
        </g>
    </g>
</svg>