<?xml version="1.0" encoding="utf-8"?>
<!-- Generator: Adobe Illustrator 17.0.0, SVG Export Plug-In . SVG Version: 6.00 Build 0)  -->
<!DOCTYPE svg PUBLIC "-//W3C//DTD SVG 1.1//EN" "http://www.w3.org/Graphics/SVG/1.1/DTD/svg11.dtd">
<svg version="1.1" id="Слой_1" xmlns="http://www.w3.org/2000/svg" xmlns:xlink="http://www.w3.org/1999/xlink" x="0px" y="0px"
	 width="42px" height="42px" viewBox="0 0 42 42" enable-background="new 0 0 42 42" xml:space="preserve">
<title>icon-percent</title>
<desc>Created with Sketch.</desc>
<g id="Page-1">
	<g id="Desktop-HD-1920" transform="translate(-776.000000, -3939.000000)">
		<g id="info-blocks" transform="translate(344.000000, 3891.000000)">
			<g id="Block-2" transform="translate(326.000000, 0.000000)">
				<g id="icon-percent" transform="translate(107.000000, 49.000000)">
					<path fill="#2B2F7C" d="M7.755,16.408c-4.771,0-8.653-3.882-8.653-8.653c0-4.771,3.882-8.653,8.653-8.653
						c4.771,0,8.653,3.882,8.653,8.653C16.408,12.526,12.526,16.408,7.755,16.408z M7.755,1.102c-3.668,0-6.653,2.984-6.653,6.653
						s2.984,6.653,6.653,6.653s6.653-2.985,6.653-6.653S11.423,1.102,7.755,1.102z"/>
					<path fill="#2B2F7C" d="M32.245,40.898c-4.771,0-8.653-3.882-8.653-8.653s3.882-8.653,8.653-8.653s8.653,3.882,8.653,8.653
						S37.017,40.898,32.245,40.898z M32.245,25.592c-3.669,0-6.653,2.984-6.653,6.653s2.984,6.653,6.653,6.653
						s6.653-2.984,6.653-6.653S35.914,25.592,32.245,25.592z"/>
					<path fill="#3B8BE7" d="M39.898,16.408c-0.553,0-1-0.448-1-1V1.102H24.592c-0.553,0-1-0.448-1-1s0.447-1,1-1h15.307
						c0.553,0,1,0.448,1,1v15.306C40.898,15.96,40.451,16.408,39.898,16.408z"/>
					<path fill="#3B8BE7" d="M0.102,40.898c-0.256,0-0.512-0.098-0.707-0.293c-0.391-0.391-0.391-1.023,0-1.414L39.191-0.605
						c0.391-0.391,1.023-0.391,1.414,0s0.391,1.023,0,1.414L0.809,40.605C0.614,40.801,0.358,40.898,0.102,40.898z"/>
				</g>
			</g>
		</g>
	</g>
</g>
</svg>
