<?xml version="1.0" encoding="utf-8"?>
<!-- Generator: Adobe Illustrator 17.0.0, SVG Export Plug-In . SVG Version: 6.00 Build 0)  -->
<!DOCTYPE svg PUBLIC "-//W3C//DTD SVG 1.1//EN" "http://www.w3.org/Graphics/SVG/1.1/DTD/svg11.dtd">
<svg version="1.1" id="Слой_1" xmlns="http://www.w3.org/2000/svg" xmlns:xlink="http://www.w3.org/1999/xlink" x="0px" y="0px"
	 width="50px" height="50px" viewBox="0 0 50 50" enable-background="new 0 0 50 50" xml:space="preserve">
<title>icon-bank</title>
<desc>Created with Sketch.</desc>
<g id="Page-1">
	<g id="Desktop-HD-1920" transform="translate(-1100.000000, -3927.000000)">
		<g id="info-blocks" transform="translate(344.000000, 3891.000000)">
			<g id="Block-3" transform="translate(649.000000, 0.000000)">
				<g id="icon-bank" transform="translate(107.000000, 36.000000)">
					<path fill="#2B2F7C" d="M20.313,43.425c-0.487,0-0.882-0.396-0.882-0.883V20.483c0-0.487,0.395-0.882,0.882-0.882
						s0.882,0.395,0.882,0.882v22.059C21.195,43.029,20.8,43.425,20.313,43.425z"/>
					<path fill="#2B2F7C" d="M29.688,43.425c-0.487,0-0.883-0.396-0.883-0.883V20.483c0-0.487,0.396-0.882,0.883-0.882
						s0.883,0.395,0.883,0.882v22.059C30.57,43.029,30.175,43.425,29.688,43.425z"/>
					<path fill="#2B2F7C" d="M39.063,43.425c-0.487,0-0.883-0.396-0.883-0.883V20.483c0-0.487,0.396-0.882,0.883-0.882
						s0.883,0.395,0.883,0.882v22.059C39.945,43.029,39.55,43.425,39.063,43.425z"/>
					<path fill="#2B2F7C" d="M10.938,43.425c-0.487,0-0.882-0.396-0.882-0.883V20.483c0-0.487,0.395-0.882,0.882-0.882
						s0.882,0.395,0.882,0.882v22.059C11.82,43.029,11.425,43.425,10.938,43.425z"/>
					<path fill="#3B8BE7" d="M48.438,49.728H1.563c-0.487,0-0.882-0.396-0.882-0.883s0.395-0.883,0.882-0.883h46.875
						c0.487,0,0.883,0.396,0.883,0.883S48.925,49.728,48.438,49.728z"/>
					<path fill="#3B8BE7" d="M48.438,21.366H1.563c-0.487,0-0.882-0.395-0.882-0.882v-9.454c0-0.36,0.219-0.684,0.552-0.818
						L24.67,0.757c0.212-0.085,0.448-0.085,0.66,0l23.438,9.454c0.334,0.135,0.553,0.458,0.553,0.818v9.454
						C49.32,20.971,48.925,21.366,48.438,21.366z M2.445,19.601h45.11v-7.976L25,2.527L2.445,11.625V19.601z"/>
					<ellipse id="Oval" fill="#2B2F7C" cx="25" cy="12.605" rx="3.125" ry="3.151"/>
				</g>
			</g>
		</g>
	</g>
</g>
</svg>
