<?xml version="1.0" encoding="utf-8"?>
<!-- Generator: Adobe Illustrator 17.0.0, SVG Export Plug-In . SVG Version: 6.00 Build 0)  -->
<!DOCTYPE svg PUBLIC "-//W3C//DTD SVG 1.1//EN" "http://www.w3.org/Graphics/SVG/1.1/DTD/svg11.dtd">
<svg version="1.1" id="Слой_1" xmlns="http://www.w3.org/2000/svg" xmlns:xlink="http://www.w3.org/1999/xlink" x="0px" y="0px"
	 width="20px" height="31px" viewBox="0 0 20 31" enable-background="new 0 0 20 31" xml:space="preserve">
<title>Group 15</title>
<desc>Created with Sketch.</desc>
<g id="Symbols">
	<g id="icon-how-step-1" transform="translate(-25.000000, -19.000000)">
		<g id="Group-15">
			<g transform="translate(26.000000, 20.000000)">
				<path fill="#FFBB32" d="M13.018,25.078H4.982c-0.414,0-0.75-0.336-0.75-0.75v-6.974c-3.945-2.258-5.771-6.94-4.35-11.314
					c1.29-3.969,4.951-6.636,9.112-6.636c0.504,0,1.013,0.041,1.513,0.12c4.688,0.748,8.086,4.743,8.082,9.499
					c0.001,3.474-1.835,6.628-4.821,8.34v6.965C13.768,24.742,13.432,25.078,13.018,25.078z M5.732,23.578h6.536v-6.661
					c0-0.281,0.157-0.539,0.408-0.668c2.723-1.393,4.414-4.162,4.413-7.227c0.004-4.015-2.864-7.386-6.818-8.017
					C9.849,0.938,9.419,0.904,8.994,0.904c-3.509,0-6.598,2.25-7.686,5.6c-1.24,3.818,0.449,7.913,4.015,9.737
					c0.25,0.129,0.408,0.387,0.408,0.668V23.578z"/>
				<path fill="#FFBB32" d="M13.018,21.855H4.982c-0.414,0-0.75-0.336-0.75-0.75s0.336-0.75,0.75-0.75h8.036
					c0.414,0,0.75,0.336,0.75,0.75S13.432,21.855,13.018,21.855z"/>
				<path fill="#FFBB32" d="M13.018,29.655H4.982c-0.414,0-0.75-0.336-0.75-0.75s0.336-0.75,0.75-0.75h8.036
					c0.414,0,0.75,0.336,0.75,0.75S13.432,29.655,13.018,29.655z"/>
				<path fill="#FFBB32" d="M4.982,9.772c-0.414,0-0.75-0.336-0.75-0.75c0-2.634,2.139-4.778,4.768-4.778
					c0.414,0,0.75,0.336,0.75,0.75S9.414,5.745,9,5.745c-1.802,0-3.268,1.47-3.268,3.278C5.732,9.437,5.396,9.772,4.982,9.772z"/>
			</g>
		</g>
	</g>
</g>
</svg>
