<?xml version="1.0" encoding="utf-8"?>
<!-- Generator: Adobe Illustrator 17.0.0, SVG Export Plug-In . SVG Version: 6.00 Build 0)  -->
<!DOCTYPE svg PUBLIC "-//W3C//DTD SVG 1.1//EN" "http://www.w3.org/Graphics/SVG/1.1/DTD/svg11.dtd">
<svg version="1.1" id="Слой_1" xmlns="http://www.w3.org/2000/svg" xmlns:xlink="http://www.w3.org/1999/xlink" x="0px" y="0px"
	 width="30px" height="30px" viewBox="0 0 30 30" enable-background="new 0 0 30 30" xml:space="preserve">
<title>Group</title>
<desc>Created with Sketch.</desc>
<g id="Symbols">
	<g id="icon-how-step-2" transform="translate(-20.000000, -20.000000)">
		<g id="Group">
			<g transform="translate(20.000000, 20.000000)">
				<path fill="#FFBB32" d="M15,30C6.729,30,0,23.271,0,15C0,6.729,6.729,0,15,0c8.271,0,15,6.729,15,15C30,23.271,23.271,30,15,30z
					 M15,1.5C7.556,1.5,1.5,7.556,1.5,15c0,7.444,6.056,13.5,13.5,13.5c7.444,0,13.5-6.056,13.5-13.5C28.5,7.556,22.444,1.5,15,1.5z
					"/>
				<g id="Group-23" transform="translate(12.000000, 9.000000)">
				</g>
				<rect x="14.25" y="8.25" fill="#FFBB32" width="1.5" height="3"/>
				<rect x="14.25" y="19.75" fill="#FFBB32" width="1.5" height="3"/>
				<path fill="#F5A623" d="M15.5,21.25h-1c-1.792,0-3.25-1.458-3.25-3.25h1.5c0,0.965,0.785,1.75,1.75,1.75h1
					c0.965,0,1.75-0.785,1.75-1.75c0-1.06-0.704-1.341-2.432-1.772C13.313,15.852,11.25,15.335,11.25,13
					c0-1.792,1.458-3.25,3.25-3.25h1c1.792,0,3.25,1.458,3.25,3.25h-1.5c0-0.965-0.785-1.75-1.75-1.75h-1
					c-0.965,0-1.75,0.785-1.75,1.75c0,1.059,0.704,1.34,2.432,1.772c1.505,0.376,3.568,0.892,3.568,3.228
					C18.75,19.792,17.292,21.25,15.5,21.25z"/>
			</g>
		</g>
	</g>
</g>
</svg>
