<?xml version="1.0" encoding="utf-8"?>
<!-- Generator: Adobe Illustrator 17.0.0, SVG Export Plug-In . SVG Version: 6.00 Build 0)  -->
<!DOCTYPE svg PUBLIC "-//W3C//DTD SVG 1.1//EN" "http://www.w3.org/Graphics/SVG/1.1/DTD/svg11.dtd">
<svg version="1.1" id="Слой_1" xmlns="http://www.w3.org/2000/svg" xmlns:xlink="http://www.w3.org/1999/xlink" x="0px" y="0px"
	 width="52px" height="46px" viewBox="0 0 52 46" enable-background="new 0 0 52 46" xml:space="preserve">
<title>icon-users</title>
<desc>Created with Sketch.</desc>
<g id="Page-1">
	<g id="Desktop-HD-1920" transform="translate(-452.000000, -3941.000000)">
		<g id="info-blocks" transform="translate(344.000000, 3891.000000)">
			<g id="Block-1">
				<g id="icon-users" transform="translate(109.000000, 51.000000)">
					<path fill="#3B8BE7" d="M16.667,21c-6.065,0-11-4.935-11-11s4.935-11,11-11c6.066,0,11,4.935,11,11S22.732,21,16.667,21z
						 M16.667,1c-4.962,0-9,4.038-9,9s4.038,9,9,9c4.963,0,9-4.038,9-9S21.629,1,16.667,1z"/>
					<path fill="#2B2F7C" d="M40,17.667c-4.228,0-7.667-3.439-7.667-7.667S35.772,2.333,40,2.333S47.667,5.772,47.667,10
						S44.228,17.667,40,17.667z M40,4.333c-3.125,0-5.667,2.542-5.667,5.667s2.542,5.667,5.667,5.667s5.667-2.542,5.667-5.667
						S43.125,4.333,40,4.333z"/>
					<path fill="#3B8BE7" d="M33.333,44.333H0c-0.552,0-1-0.447-1-1c0-9.741,7.925-17.666,17.667-17.666
						c9.742,0,17.667,7.925,17.667,17.666C34.333,43.886,33.886,44.333,33.333,44.333z M1.032,42.333h31.27
						c-0.518-8.174-7.333-14.666-15.635-14.666S1.549,34.159,1.032,42.333z"/>
					<path fill="#2B2F7C" d="M50,34.333H39.269c-0.553,0-1-0.447-1-1s0.447-1,1-1H49V30c0-4.963-4.365-9-9.731-9
						c-0.006,0-0.012,0-0.018,0c-1.927,0-3.79,0.524-5.392,1.517c-0.471,0.291-1.087,0.146-1.376-0.323
						c-0.291-0.47-0.146-1.086,0.323-1.377C34.725,19.628,36.952,19,39.25,19c0.007,0,0.014,0,0.021,0C45.737,19,51,23.935,51,30
						v3.333C51,33.886,50.553,34.333,50,34.333z"/>
				</g>
			</g>
		</g>
	</g>
</g>
</svg>
