<?xml version="1.0" encoding="utf-8"?>
<!-- Generator: Adobe Illustrator 17.0.0, SVG Export Plug-In . SVG Version: 6.00 Build 0)  -->
<!DOCTYPE svg PUBLIC "-//W3C//DTD SVG 1.1//EN" "http://www.w3.org/Graphics/SVG/1.1/DTD/svg11.dtd">
<svg version="1.1" id="Слой_1" xmlns="http://www.w3.org/2000/svg" xmlns:xlink="http://www.w3.org/1999/xlink" x="0px" y="0px"
	 width="26px" height="26px" viewBox="0 0 26 26" enable-background="new 0 0 26 26" xml:space="preserve">
<title>Group 25</title>
<desc>Created with Sketch.</desc>
<g id="Symbols">
	<g id="icon-how-step-4" transform="translate(-22.000000, -22.000000)">
		<g id="Group-25">
			<g transform="translate(23.000000, 23.000000)">
				<path fill="#FFBB32" d="M12,15.95c-2.178,0-3.95-1.772-3.95-3.95c0-2.178,1.772-3.95,3.95-3.95c2.178,0,3.95,1.772,3.95,3.95
					C15.95,14.178,14.178,15.95,12,15.95z M12,9.55c-1.351,0-2.45,1.099-2.45,2.45c0,1.351,1.099,2.45,2.45,2.45
					c1.351,0,2.45-1.1,2.45-2.45C14.45,10.649,13.351,9.55,12,9.55z"/>
				<path fill="#FFBB32" d="M14.262,24.75H9.738l-0.449-3.594c-0.642-0.189-1.26-0.445-1.847-0.765l-2.857,2.223l-3.199-3.198
					l2.223-2.858c-0.319-0.587-0.575-1.205-0.765-1.847l-3.593-0.449V9.738l3.593-0.449c0.19-0.642,0.446-1.259,0.765-1.846
					L1.385,4.584l3.199-3.199l2.857,2.223c0.587-0.319,1.205-0.575,1.847-0.765L9.738-0.75h4.524l0.449,3.593
					c0.642,0.189,1.26,0.446,1.847,0.765l2.858-2.223l3.198,3.199l-2.223,2.857c0.32,0.587,0.576,1.205,0.765,1.847l3.594,0.449
					v4.524l-3.594,0.449c-0.188,0.642-0.444,1.26-0.765,1.847l2.223,2.858l-3.198,3.198l-2.858-2.223
					c-0.587,0.32-1.205,0.576-1.847,0.765L14.262,24.75z M11.062,23.25h1.875l0.412-3.299l0.508-0.12
					c0.839-0.197,1.636-0.527,2.367-0.979l0.443-0.274l2.623,2.041l1.327-1.327l-2.041-2.623l0.274-0.443
					c0.452-0.731,0.782-1.528,0.979-2.367l0.12-0.508l3.299-0.412v-1.875l-3.299-0.412l-0.12-0.508
					c-0.197-0.839-0.527-1.636-0.979-2.366l-0.274-0.444l2.041-2.624l-1.327-1.326l-2.623,2.04l-0.443-0.273
					c-0.731-0.452-1.528-0.782-2.368-0.98l-0.507-0.12L12.938,0.75h-1.875L10.65,4.048l-0.507,0.12
					c-0.84,0.198-1.636,0.528-2.367,0.98L7.332,5.422l-2.624-2.04L3.382,4.708l2.04,2.623L5.148,7.775
					c-0.452,0.732-0.782,1.528-0.98,2.368l-0.12,0.507L0.75,11.062v1.875l3.298,0.412l0.12,0.508
					c0.198,0.839,0.528,1.636,0.98,2.367l0.274,0.443l-2.04,2.623l1.326,1.327l2.624-2.041l0.443,0.274
					c0.731,0.452,1.528,0.782,2.367,0.979l0.508,0.12L11.062,23.25z"/>
			</g>
		</g>
	</g>
</g>
</svg>
