<?xml version="1.0" encoding="utf-8"?>
<!-- Generator: Adobe Illustrator 17.0.0, SVG Export Plug-In . SVG Version: 6.00 Build 0)  -->
<!DOCTYPE svg PUBLIC "-//W3C//DTD SVG 1.1//EN" "http://www.w3.org/Graphics/SVG/1.1/DTD/svg11.dtd">
<svg version="1.1" id="Слой_1" xmlns="http://www.w3.org/2000/svg" xmlns:xlink="http://www.w3.org/1999/xlink" x="0px" y="0px"
	 width="52px" height="52px" viewBox="0 0 52 52" enable-background="new 0 0 52 52" xml:space="preserve">
<title>icon-pie-chart</title>
<desc>Created with Sketch.</desc>
<g id="Page-1">
	<g id="Desktop-HD-1920" transform="translate(-1409.000000, -3929.000000)">
		<g id="info-blocks" transform="translate(344.000000, 3891.000000)">
			<g id="Block-4" transform="translate(962.000000, 0.000000)">
				<g id="icon-pie-chart" transform="translate(104.000000, 39.000000)">
					<path fill="#3B8BE7" d="M25,51C10.664,51-1,39.337-1,25C-1,10.664,10.664-1,25-1c14.337,0,26,11.664,26,26
						C51,39.337,39.337,51,25,51z M25,1C11.767,1,1,11.767,1,25s10.767,24,24,24s24-10.767,24-24S38.233,1,25,1z"/>
					<path fill="#2B2F7C" d="M50,26c-0.553,0-1-0.447-1-1C49,11.767,38.233,1,25,1c-0.552,0-1-0.448-1-1s0.448-1,1-1
						c14.337,0,26,11.664,26,26C51,25.553,50.553,26,50,26z"/>
					<path fill="#2B2F7C" d="M50,26H25c-0.552,0-1-0.447-1-1V0c0-0.552,0.448-1,1-1c0.553,0,1,0.448,1,1v24h24c0.553,0,1,0.448,1,1
						C51,25.553,50.553,26,50,26z"/>
				</g>
			</g>
		</g>
	</g>
</g>
</svg>
