<?xml version="1.0" encoding="UTF-8"?>
<svg width="23px" height="22px" viewBox="0 0 23 22" version="1.1" xmlns="http://www.w3.org/2000/svg" xmlns:xlink="http://www.w3.org/1999/xlink">
    <!-- Generator: Sketch 52.2 (67145) - http://www.bohemiancoding.com/sketch -->
    <title>linkedin-white</title>
    <desc>Created with Sketch.</desc>
    <g id="Page-1" stroke="none" stroke-width="1" fill="none" fill-rule="evenodd">
        <g id="Desktop-HD-1920" transform="translate(-450.000000, -703.000000)" fill="#4A4A4A" fill-rule="nonzero">
            <g id="Header">
                <g id="social-icons" transform="translate(275.000000, 703.000000)">
                    <path d="M196.61665,0 L176.682168,0 C176.207538,0 175.800712,0.40569395 175.800712,0.879003559 L175.800712,20.6903915 C175.800712,21.2313167 176.207538,21.6370107 176.682168,21.6370107 L196.548845,21.6370107 C197.023476,21.6370107 197.430302,21.2313167 197.430302,20.7580071 L197.430302,0.879003559 C197.498107,0.40569395 197.09128,0 196.61665,0 Z M182.242126,18.4590747 L178.987517,18.4590747 L178.987517,8.113879 L182.242126,8.113879 L182.242126,18.4590747 Z M180.614821,6.69395018 C179.597756,6.69395018 178.716299,5.88256228 178.716299,4.80071174 C178.716299,3.78647687 179.529951,2.90747331 180.614821,2.90747331 C181.631887,2.90747331 182.513343,3.71886121 182.513343,4.80071174 C182.513343,5.88256228 181.631887,6.69395018 180.614821,6.69395018 Z M194.311302,18.4590747 L191.124497,18.4590747 L191.124497,13.455516 C191.124497,12.2384342 191.124497,10.7508897 189.429388,10.7508897 C187.734279,10.7508897 187.530866,12.0355872 187.530866,13.3879004 L187.530866,18.5266904 L184.344061,18.5266904 L184.344061,8.113879 L187.327453,8.113879 L187.327453,9.53380783 L187.395257,9.53380783 C187.802083,8.72241993 188.886953,7.84341637 190.446453,7.84341637 C193.701062,7.84341637 194.311302,10.0071174 194.311302,12.7793594 L194.311302,18.4590747 Z" id="linkedin-white"></path>
                </g>
            </g>
        </g>
    </g>
</svg>