<?xml version="1.0" encoding="UTF-8"?>
<svg width="22px" height="22px" viewBox="0 0 22 22" version="1.1" xmlns="http://www.w3.org/2000/svg" xmlns:xlink="http://www.w3.org/1999/xlink">
    <!-- Generator: Sketch 52.2 (67145) - http://www.bohemiancoding.com/sketch -->
    <title>medium-white</title>
    <desc>Created with Sketch.</desc>
    <g id="Page-1" stroke="none" stroke-width="1" fill="none" fill-rule="evenodd">
        <g id="Desktop-HD-1920" transform="translate(-345.000000, -704.000000)" fill="#4A4A4A" fill-rule="nonzero">
            <g id="Header">
                <g id="social-icons" transform="translate(275.000000, 703.000000)">
                    <path d="M91.2811388,1.35231317 L70.9964413,1.35231317 C70.6230103,1.35231317 70.3202847,1.65503878 70.3202847,2.02846975 L70.3202847,22.3131673 C70.3202847,22.6865982 70.6230103,22.9893238 70.9964413,22.9893238 L91.2811388,22.9893238 C91.6545698,22.9893238 91.9572954,22.6865982 91.9572954,22.3131673 L91.9572954,2.02846975 C91.9572954,1.65503878 91.6545698,1.35231317 91.2811388,1.35231317 Z M88.2959075,6.47893238 L87.1349466,7.59120996 C87.0345373,7.66729781 86.9847637,7.79290458 87.0058007,7.91711744 L87.0058007,16.0925267 C86.9847637,16.2167395 87.0345373,16.3423463 87.1349466,16.4184342 L88.2681851,17.5307117 L88.2681851,17.7748043 L82.5681851,17.7748043 L82.5681851,17.5307117 L83.7419929,16.3900356 C83.8576157,16.2744128 83.8576157,16.240605 83.8576157,16.0641281 L83.8576157,9.45672598 L80.5938078,17.7470819 L80.1529537,17.7470819 L76.3522776,9.45672598 L76.3522776,15.0106762 C76.3206492,15.244238 76.398195,15.4793691 76.5625623,15.6482918 L78.0893238,17.5002847 L78.0893238,17.7443772 L73.7619217,17.7443772 L73.7619217,17.5002847 L75.2886833,15.6482918 C75.4519502,15.4791455 75.5250035,15.2424124 75.4854448,15.0106762 L75.4854448,8.58718861 C75.5030491,8.40926451 75.4350289,8.23356648 75.3022064,8.113879 L73.9431317,6.47893238 L73.9431317,6.23483986 L78.1569395,6.23483986 L81.4139858,13.3784342 L84.2781851,6.23483986 L88.2952313,6.23483986 L88.2959075,6.47893238 Z" id="medium-white"></path>
                </g>
            </g>
        </g>
    </g>
</svg>