<?xml version="1.0" encoding="UTF-8"?>
<svg width="100px" height="79px" viewBox="0 0 100 79" version="1.1" xmlns="http://www.w3.org/2000/svg" xmlns:xlink="http://www.w3.org/1999/xlink">
    <!-- Generator: Sketch 52.2 (67145) - http://www.bohemiancoding.com/sketch -->
    <title>“</title>
    <desc>Created with Sketch.</desc>
    <g id="Page-1" stroke="none" stroke-width="1" fill="none" fill-rule="evenodd">
        <g id="Desktop-HD-1920" transform="translate(-774.000000, -6453.000000)" fill="#FFBB32">
            <g id="In-the-news" transform="translate(-30.000000, 6123.000000)">
                <path d="M851.179487,330 L829.331268,365.687158 C834.608642,366.568327 838.883251,368.88136 842.155223,372.626328 C845.427195,376.371295 847.063156,381.107506 847.063156,386.835104 C847.063156,393.223577 845.005011,398.510511 840.888659,402.696063 C836.772308,406.881614 831.653332,408.974359 825.531578,408.974359 C819.198729,408.974359 814.02698,406.826542 810.016176,402.530844 C806.005372,398.235146 804,392.12213 804,384.19161 C804,376.261091 807.060831,367.449535 813.182585,357.756678 L830.597832,330 L851.179487,330 Z M904,330 L882.151781,365.687158 C887.429155,366.568327 891.703764,368.88136 894.975736,372.626328 C898.247708,376.371295 899.883669,381.107506 899.883669,386.835104 C899.883669,393.223577 897.825524,398.510511 893.709172,402.696063 C889.592821,406.881614 884.473845,408.974359 878.352091,408.974359 C872.019242,408.974359 866.847493,406.826542 862.836689,402.530844 C858.825885,398.235146 856.820513,392.12213 856.820513,384.19161 C856.820513,376.261091 859.881344,367.449535 866.003098,357.756678 L883.418345,330 L904,330 Z" id="“"></path>
            </g>
        </g>
    </g>
</svg>