<?xml version="1.0" encoding="UTF-8"?>
<svg width="26px" height="22px" viewBox="0 0 26 22" version="1.1" xmlns="http://www.w3.org/2000/svg" xmlns:xlink="http://www.w3.org/1999/xlink">
    <!-- Generator: Sketch 52.2 (67145) - http://www.bohemiancoding.com/sketch -->
    <title>reddit-white</title>
    <desc>Created with Sketch.</desc>
    <g id="Page-1" stroke="none" stroke-width="1" fill="none" fill-rule="evenodd">
        <g id="Desktop-HD-1920" transform="translate(-571.000000, -703.000000)" fill="#4A4A4A" fill-rule="nonzero">
            <g id="Header">
                <g id="social-icons" transform="translate(275.000000, 703.000000)">
                    <path d="M321.850534,10.6159116 C321.850534,8.91412425 320.485543,7.53648686 318.799377,7.53648686 C318.076735,7.53648686 317.354093,7.77959934 316.872331,8.2658243 C315.025578,7.05026191 312.61677,6.32092447 310.047375,6.23988697 L311.412367,1.94489984 L315.025578,2.75527477 C315.105872,4.13291215 316.229982,5.18639956 317.594973,5.18639956 C319.040258,5.18639956 320.164368,4.05187466 320.164368,2.59319978 C320.164368,1.1345249 319.040258,0 317.594973,0 C316.63145,0 315.748221,0.567262452 315.266459,1.37763738 L311.010899,0.324149973 C310.689724,0.24311248 310.288256,0.486224959 310.207963,0.810374932 L308.521797,6.07781199 C305.791815,6.15884948 303.142126,6.88818692 301.134786,8.10374932 C300.572731,7.69856185 299.930383,7.45544937 299.20774,7.45544937 C297.521575,7.45544937 296.156584,8.83308676 296.156584,10.5348741 C296.156584,11.5883615 296.718639,12.5608114 297.521575,13.1280739 C297.521575,13.3711864 297.441281,13.6142989 297.441281,13.8574113 C297.441281,16.0454236 298.645685,17.9903235 300.893906,19.4489984 C303.061833,20.9076732 305.872109,21.6370107 308.923265,21.6370107 C311.974422,21.6370107 314.784698,20.8266357 316.952625,19.4489984 C319.200845,17.9903235 320.405249,15.9643862 320.405249,13.8574113 C320.405249,13.6142989 320.405249,13.3711864 320.324956,13.2091114 C321.288479,12.7228864 321.850534,11.7504365 321.850534,10.6159116 Z M317.594973,1.37763738 C318.237322,1.37763738 318.799377,1.94489984 318.799377,2.59319978 C318.799377,3.24149973 318.237322,3.80876218 317.594973,3.80876218 C316.952625,3.80876218 316.390569,3.24149973 316.390569,2.59319978 C316.390569,1.94489984 316.952625,1.37763738 317.594973,1.37763738 Z M303.463301,12.5608114 C303.463301,11.5883615 304.266237,10.7779866 305.22976,10.7779866 C306.193283,10.7779866 306.996219,11.5883615 306.996219,12.5608114 C306.996219,13.5332614 306.193283,14.3436363 305.22976,14.3436363 C304.266237,14.3436363 303.463301,13.5332614 303.463301,12.5608114 Z M313.259119,17.747211 C312.37589,18.6386234 311.010899,19.1248484 309.003559,19.1248484 C309.003559,19.1248484 309.003559,19.1248484 309.003559,19.1248484 C309.003559,19.1248484 309.003559,19.1248484 309.003559,19.1248484 C307.076512,19.1248484 305.711521,18.7196609 304.747998,17.747211 C304.507117,17.5040985 304.507117,17.0178736 304.747998,16.7747611 C304.988879,16.5316486 305.470641,16.5316486 305.711521,16.7747611 C306.35387,17.423061 307.397687,17.6661735 308.923265,17.6661735 C308.923265,17.6661735 308.923265,17.6661735 308.923265,17.6661735 C308.923265,17.6661735 308.923265,17.6661735 308.923265,17.6661735 C310.448843,17.6661735 311.49266,17.3420235 312.135009,16.7747611 C312.37589,16.5316486 312.857651,16.5316486 313.098532,16.7747611 C313.5,17.0178736 313.5,17.423061 313.259119,17.747211 Z M312.857651,14.3436363 C311.894128,14.3436363 311.091192,13.5332614 311.091192,12.5608114 C311.091192,11.5883615 311.894128,10.7779866 312.857651,10.7779866 C313.821174,10.7779866 314.62411,11.5883615 314.62411,12.5608114 C314.62411,13.5332614 313.821174,14.3436363 312.857651,14.3436363 Z" id="reddit-white"></path>
                </g>
            </g>
        </g>
    </g>
</svg>