<svg width="26" height="21" viewBox="0 0 26 21" fill="none" xmlns="http://www.w3.org/2000/svg">
<path id="telegram-1" fill-rule="evenodd" clip-rule="evenodd" d="M19.9233 20.2344C20.2664 20.4677 20.7087 20.526 21.1029 20.3828C21.4972 20.2385 21.7871 19.9153 21.8744 19.5234C22.8005 15.3454 25.0468 4.77049 25.8897 0.969974C25.9536 0.683528 25.8471 0.38583 25.6126 0.194525C25.3782 0.00322068 25.0532 -0.0520223 24.7633 0.0513026C20.2952 1.63903 6.53485 6.59556 0.910509 8.59351C0.553527 8.72037 0.321222 9.04978 0.332943 9.4109C0.345731 9.77305 0.599348 10.0871 0.964856 10.1925C3.48718 10.9168 6.79806 11.9245 6.79806 11.9245C6.79806 11.9245 8.34534 16.4104 9.15201 18.6917C9.25324 18.9782 9.48661 19.2032 9.79458 19.281C10.1015 19.3577 10.4297 19.2769 10.6588 19.0692C11.9546 17.8948 13.958 16.0789 13.958 16.0789C13.958 16.0789 17.7643 18.7582 19.9233 20.2344ZM8.19082 11.3577L9.98 17.0232L10.3775 13.4355C10.3775 13.4355 17.2901 7.44978 21.2308 4.03801C21.3459 3.93775 21.3619 3.76998 21.266 3.65233C21.1711 3.53468 20.9964 3.50706 20.8653 3.58686C16.2981 6.38686 8.19082 11.3577 8.19082 11.3577Z" fill="#4A4A4A"/>
</svg>
