<?xml version="1.0" encoding="UTF-8"?>
<svg width="26px" height="22px" viewBox="0 0 26 22" version="1.1" xmlns="http://www.w3.org/2000/svg" xmlns:xlink="http://www.w3.org/1999/xlink">
    <!-- Generator: Sketch 52.2 (67145) - http://www.bohemiancoding.com/sketch -->
    <title>twitter-white</title>
    <desc>Created with Sketch.</desc>
    <g id="Page-1" stroke="none" stroke-width="1" fill="none" fill-rule="evenodd">
        <g id="Desktop-HD-1920" transform="translate(-275.000000, -703.000000)" fill="#4A4A4A" fill-rule="nonzero">
            <g id="Header">
                <g id="social-icons" transform="translate(275.000000, 703.000000)">
                    <path d="M25.6939502,2.57979743 C24.7334287,2.99589379 23.7729072,3.32877087 22.6522988,3.41199015 C23.7729072,2.74623597 24.5733418,1.66438544 24.9735591,0.416096359 C23.9329941,1.08185053 22.8123857,1.49794689 21.6117338,1.74760471 C20.6512123,0.665754175 19.2904735,0 17.8496912,0 C14.9681267,0 12.566823,2.41335888 12.566823,5.49247194 C12.566823,5.9085683 12.6468664,6.32466466 12.7269099,6.74076102 C8.32451968,6.4911032 4.48243368,4.32740214 1.84099955,0.998631262 C1.36073879,1.83082398 1.12060842,2.74623597 1.12060842,3.74486723 C1.12060842,5.65891048 2.08112992,7.32329592 3.44186872,8.32192718 C2.56139067,8.32192718 1.76095609,8.07226937 1.04056496,7.65617301 C1.04056496,7.65617301 1.04056496,7.73939228 1.04056496,7.73939228 C1.04056496,10.402409 2.88156451,12.56611 5.28286826,13.0654257 C4.80260751,13.1486449 4.40239022,13.2318642 3.92212947,13.2318642 C3.60195563,13.2318642 3.2817818,13.2318642 2.96160796,13.1486449 C3.60195563,15.312346 5.60304209,16.8935122 7.84425893,16.9767315 C6.08330285,18.4746783 3.76204255,19.3068711 1.28069534,19.3068711 C0.880478043,19.3068711 0.400217292,19.3068711 0,19.2236518 C2.40130375,20.7215987 5.2028248,21.6370107 8.16443277,21.6370107 C17.8496912,21.6370107 23.1325595,13.3150835 23.1325595,6.07500684 C23.1325595,5.82534903 23.1325595,5.57569121 23.1325595,5.40925267 C24.093081,4.57705995 24.9735591,3.66164796 25.6939502,2.57979743 Z" id="twitter-white"></path>
                </g>
            </g>
        </g>
    </g>
</svg>