<?xml version="1.0" encoding="UTF-8"?>
<svg width="31px" height="22px" viewBox="0 0 31 22" version="1.1" xmlns="http://www.w3.org/2000/svg" xmlns:xlink="http://www.w3.org/1999/xlink">
    <!-- Generator: Sketch 52.2 (67145) - http://www.bohemiancoding.com/sketch -->
    <title>youtube-white</title>
    <desc>Created with Sketch.</desc>
    <g id="Page-1" stroke="none" stroke-width="1" fill="none" fill-rule="evenodd">
        <g id="Desktop-HD-1920" transform="translate(-507.000000, -704.000000)" fill="#4A4A4A" fill-rule="nonzero">
            <g id="Header">
                <g id="social-icons" transform="translate(275.000000, 703.000000)">
                    <path d="M262.06984,6.04352345 C262.06984,6.04352345 261.790925,3.93726577 260.86121,2.97987592 C259.745552,1.73526911 258.44395,1.73526911 257.886121,1.63953012 C253.702402,1.35231317 247.47331,1.35231317 247.47331,1.35231317 C247.47331,1.35231317 241.244217,1.35231317 237.060498,1.63953012 C236.502669,1.73526911 235.201068,1.73526911 234.085409,2.97987592 C233.155694,3.93726577 232.876779,6.04352345 232.876779,6.04352345 C232.876779,6.04352345 232.597865,8.53273706 232.597865,11.0219507 L232.597865,13.3196863 C232.597865,15.8088999 232.876779,18.2981136 232.876779,18.2981136 C232.876779,18.2981136 233.155694,20.4043712 234.085409,21.3617611 C235.201068,22.6063679 236.688612,22.5106289 237.339413,22.7021069 C239.756673,22.8935849 247.47331,22.9893238 247.47331,22.9893238 C247.47331,22.9893238 253.702402,22.9893238 257.886121,22.7021069 C258.44395,22.6063679 259.745552,22.6063679 260.86121,21.3617611 C261.790925,20.4043712 262.06984,18.2981136 262.06984,18.2981136 C262.06984,18.2981136 262.348754,15.8088999 262.348754,13.3196863 L262.348754,11.0219507 C262.348754,8.53273706 262.06984,6.04352345 262.06984,6.04352345 Z M244.405249,16.1918559 L244.405249,7.57534721 L252.400801,11.8836015 L244.405249,16.1918559 Z" id="youtube-white"></path>
                </g>
            </g>
        </g>
    </g>
</svg>