<?xml version="1.0" encoding="utf-8"?>
<!-- Generator: Adobe Illustrator 22.1.0, SVG Export Plug-In . SVG Version: 6.00 Build 0)  -->
<svg version="1.1" id="Layer_1" xmlns="http://www.w3.org/2000/svg" xmlns:xlink="http://www.w3.org/1999/xlink" x="0px" y="0px"
	 viewBox="0 0 80 80" style="enable-background:new 0 0 80 80;" xml:space="preserve">
<style type="text/css">
	.st0{fill:#1E2739;}
</style>
<g>
	<path class="st0" d="M79.2,4.2H0.8v2.4h3.8v49.1h34.2v9.1l-14.6,11l1.4,1.9L40,66.9l14.3,10.8l1.4-1.9l-14.6-11v-9.1h34.2V6.6h3.8
		V4.2z M73,53.4H7V6.7H73V53.4z"/>
	<path class="st0" d="M29,34.7l3.8,2.2v6.5l6.4,3.7l6.4-3.7V37l3.9-2.2l5.5,3.2l6.4-3.7v-7.4L55,23.2l-5.5,3.2l-3.9-2.3v-6.3
		l-6.4-3.7l-6.4,3.7v6.4L29,26.5l-5.6-3.3L17,26.9v7.4l6.4,3.7L29,34.7z M29.7,27.8l3.8-2.3l5.6,3.3l5.7-3.3l3.7,2.2v5.8l-3.8,2.2
		l-5.7-3.3l-5.6,3.2l-3.9-2.2V27.8z M43.3,42.1l-4.2,2.4L35,42.1v-4.8l4.2-2.4l4.2,2.4V42.1z M55,25.8l4.2,2.4V33L55,35.4l-3.3-1.9
		l1.9-1.1v-1.8l-2.7,1.6v-4L55,25.8z M35,19l4.2-2.4l4.2,2.4v3.7l-2.5-1.5v1.8l1.9,1.1l-3.5,2l-3.5-2l2-1.2v-1.8L35,22.8V19z
		 M19.2,28.2l4.2-2.4l4.2,2.4V32L25,30.6v1.8l1.8,1l-3.4,2L19.2,33V28.2z"/>
</g>
</svg>
