<?xml version="1.0" encoding="utf-8"?>
<!-- Generator: Adobe Illustrator 22.1.0, SVG Export Plug-In . SVG Version: 6.00 Build 0)  -->
<svg version="1.1" id="Layer_1" xmlns="http://www.w3.org/2000/svg" xmlns:xlink="http://www.w3.org/1999/xlink" x="0px" y="0px"
	 viewBox="0 0 80 80" style="enable-background:new 0 0 80 80;" xml:space="preserve">
<style type="text/css">
	.st0{fill:#1E2739;}
</style>
<g>
	<path class="st0" d="M37.4,41.5c-3.8-2.6-7.6-5.3-7.6-9.7c0-4.5,2.4-7.6,5.8-7.6c3.5,0,5.4,4.2,5.4,7.2c0,2.3-0.5,3.3-1.1,4.1
		l-0.7,0.9l1.9,1.5l0.7-0.9l0.1-0.1c0.8-1.2,1.5-2.6,1.5-5.5c0-4.6-3-9.6-7.9-9.6c-4.8,0-8.2,4.2-8.2,10c0,5.8,4.8,9.1,8.7,11.8
		c1.6,1.1,3.1,2.1,4.1,3.2c2.3,2.5,2.7,7,2.8,9.2H28c-0.4-5.2,1.9-8.1,2-8.2l0.8-1.1l-2-1.5l-0.8,1c-0.3,0.4-3.3,4.4-2.4,11.2
		l0.1,1.1h19.4l0.1-1.2c0-0.3,0.4-8-3.5-12.1C40.7,43.8,39.1,42.7,37.4,41.5z"/>
	<path class="st0" d="M44.7,0.7h-9.2v0c0,0-0.1,0-0.1,0C18.4,0.7,4.6,18.4,4.6,40s13.8,39.3,30.7,39.3c0,0,0.1,0,0.1,0v0h9.2
		c16.9,0,30.7-17.6,30.7-39.3S61.6,0.7,44.7,0.7z M73.3,40c0,8.6-2.3,16.6-6.1,22.9h-6.9C63.9,56.4,66,48.5,66,40
		c0-12.8-4.8-24.2-12.3-31.4h6.2C67.9,15.2,73.3,26.8,73.3,40z M57,6.5h-5.7c-1.9-1.5-3.9-2.7-6-3.6C49.5,3,53.4,4.3,57,6.5z
		 M6.7,40c0-20.5,12.8-37.1,28.6-37.1S63.9,19.5,63.9,40S51.1,77.1,35.3,77.1S6.7,60.5,6.7,40z M52,73h5.9c-3.8,2.6-8,4-12.6,4.2
		C47.7,76.1,49.9,74.7,52,73z M60.6,70.9h-6.3c1.7-1.7,3.3-3.7,4.7-5.9h6.8C64.3,67.2,62.5,69.2,60.6,70.9z"/>
</g>
</svg>
