<svg width="199" height="53" viewBox="0 0 199 53" fill="none" xmlns="http://www.w3.org/2000/svg">
<g id="Niteco">
<path id="Path" fill-rule="evenodd" clip-rule="evenodd" d="M33.3725 21.5821C32.9599 20.0215 32.3347 18.5279 31.5153 17.1452C29.9852 14.5417 27.7683 12.4316 25.1186 11.0567C22.4388 9.67663 19.4747 8.97175 16.474 9.00087C14.6474 8.98592 12.8306 9.27566 11.0952 9.85868C9.48691 10.3991 7.98216 11.2197 6.64749 12.2842C4.33886 14.0698 2.54269 16.4572 1.4472 19.196C0.535218 21.4493 0.0443503 23.8572 0 26.2952V51.9951H7.54958V26.4579C7.54372 24.7016 7.99312 22.9751 8.85206 21.454C9.66975 19.9247 10.8551 18.6336 12.2964 17.7023C13.6319 16.8228 15.1892 16.3602 16.7779 16.3712H16.9275C19.1176 16.3712 20.8687 16.9085 22.2869 18.0079C23.6951 19.0605 24.7891 20.4926 25.4467 22.1441C26.0874 23.7069 26.4312 25.38 26.4597 27.0741V52H33.9996V26.6058C34.0101 24.9102 33.7992 23.2207 33.3725 21.5821Z" fill="#FDB913"/>
<path id="Path_2" fill-rule="evenodd" clip-rule="evenodd" d="M76 17.5528V10.1493H62.7089V0H55V38.8074C55 42.948 56.211 46.2255 58.5935 48.5324C60.9761 50.8392 64.0084 52 67.5921 52H76V44.4453L68.8277 44.6745C67.9475 44.6817 67.0708 44.5651 66.2236 44.3283C65.5217 44.1364 64.8505 43.8474 64.23 43.4699L64.1463 43.4211C63.1617 42.8505 62.8172 41.2459 62.6941 39.9632V17.5528H76Z" fill="#FDB913"/>
<path id="Shape" fill-rule="evenodd" clip-rule="evenodd" d="M193.483 16.6215C195.241 18.6409 196.622 20.9726 197.558 23.5011C198.511 26.0376 199 28.7317 199 31.449C199.003 33.0875 198.822 34.721 198.461 36.3174C198.06 38.0182 197.474 39.6675 196.712 41.2341C195.171 44.5894 192.788 47.467 189.805 49.5736C188.21 50.6948 186.457 51.559 184.605 52.1359C182.653 52.7245 180.627 53.0145 178.592 52.9964C174.699 53.072 170.874 51.9466 167.615 49.767C164.572 47.7108 162.107 44.8778 160.463 41.5483L160.435 41.4951C159.7 39.9115 159.108 38.2625 158.667 36.5688C158.227 34.891 158.003 33.1618 158 31.4248C158.028 29.017 158.445 26.6305 159.234 24.3616C160.099 21.8268 161.395 19.4683 163.063 17.3951C164.847 15.1641 167.072 13.3437 169.591 12.0529C172.392 10.6497 175.479 9.94715 178.597 10.0031C181.496 9.97081 184.368 10.5793 187.016 11.787C189.478 12.9204 191.68 14.5671 193.483 16.6215ZM182.1 17.7577C180.965 17.3937 179.782 17.211 178.592 17.2162V17.2355C176.219 17.1851 173.885 17.8602 171.889 19.1742C169.907 20.4742 168.298 22.2872 167.223 24.4293C166.106 26.5891 165.523 28.9959 165.526 31.4393C165.522 32.5693 165.641 33.6963 165.88 34.7993C166.148 35.9541 166.541 37.0747 167.053 38.14C168.092 40.3381 169.675 42.221 171.643 43.603C175.885 46.4543 181.38 46.4448 185.612 43.5788C187.563 42.1727 189.111 40.258 190.094 38.0336C191.053 35.9644 191.569 33.7096 191.606 31.42C191.523 26.5515 189.14 22.0258 185.21 19.2757C184.248 18.6228 183.201 18.1117 182.1 17.7577Z" fill="#FDB913"/>
<rect id="Rectangle" x="41" y="12" width="7" height="40" fill="#FDB913"/>
<rect id="Rectangle_2" x="41" width="7" height="8" fill="#FDB913"/>
<path id="Shape_2" fill-rule="evenodd" clip-rule="evenodd" d="M106.362 44.4436C107.436 44.0786 108.488 43.6483 109.513 43.155C112.159 41.8421 113.74 40.0722 115.089 38.3217L120.84 42.2846L120.811 42.3381C118.931 45.4312 116.272 47.9403 113.117 49.5979C110.443 50.9899 107.518 51.7946 104.527 51.9611C104.099 51.987 103.666 52 103.229 52C99.375 52 94.8746 51.0518 91.6761 49.1846C88.4857 47.3241 85.8171 44.6437 83.93 41.4045C83.0072 39.7671 82.2772 38.0221 81.7552 36.2064C81.2423 34.3601 80.9881 32.4475 81.0004 30.527C80.998 28.6582 81.2521 26.7985 81.7552 25.0031C82.2825 23.1918 83.024 21.4541 83.963 19.8294C85.7152 16.5918 88.2567 13.8816 91.3364 11.9666C94.4619 10.0044 98.0554 8.97739 101.715 9.00048C103.622 8.98801 105.523 9.21663 107.376 9.68124C109.222 10.1739 110.995 10.9179 112.65 11.8937C115.9 13.7804 117.924 15.9053 120 19.1292C120.278 19.5668 121 20.9575 121 20.9575L95.3888 38.7982L92.5583 40.7432C92.7092 40.9118 92.8665 41.0739 93.03 41.2295C94.5302 42.6542 97.3277 43.9282 99.6864 44.4874C100.704 44.6905 101.733 44.8286 102.767 44.9007C103.981 44.9491 105.195 44.7947 106.362 44.4436ZM91.5959 21.4389C90.1335 23.3324 89.1713 25.5838 88.8032 27.9741V27.979C88.6946 28.6744 88.5578 30.0796 88.5295 30.7701C88.5212 31.8953 88.6722 33.0158 88.9777 34.0961L110.277 19.2167C109.52 18.5884 108.681 18.0713 107.786 17.6801C105.925 16.8515 103.917 16.4293 101.889 16.4402C99.92 16.4284 97.9703 16.8442 96.1671 17.6607C94.3649 18.513 92.7947 19.8108 91.5959 21.4389Z" fill="#FDB913"/>
<path id="Path_3" fill-rule="evenodd" clip-rule="evenodd" d="M150.036 9.16661L148.699 9.02945C148.451 9.02945 148.198 9.00005 147.954 9.00005H146.407C143.518 8.99452 140.643 9.41169 137.865 10.2394C137.091 10.4794 136.341 10.7293 135.619 11.0477L135.549 11.0771C132.225 12.5886 129.375 15.0466 127.325 18.1702C127.077 18.5474 126.857 18.9442 126.627 19.341L126.416 19.7476C126.336 19.8994 126.266 20.0562 126.191 20.208C125.784 21.063 125.432 21.945 125.136 22.8484C125.061 23.0835 124.986 23.3383 124.916 23.5636C124.887 23.6665 124.85 23.7693 124.822 23.8771C123.726 28.2115 123.726 32.7689 124.822 37.1033C124.85 37.2062 124.883 37.309 124.916 37.4119C124.986 37.652 125.061 37.9018 125.136 38.1271C125.432 39.0305 125.784 39.9125 126.191 40.7675C126.266 40.9193 126.336 41.0761 126.416 41.2279L126.627 41.6345C126.847 42.0362 127.096 42.4281 127.325 42.8053C129.372 45.9379 132.222 48.4047 135.549 49.9229L135.619 49.9523C136.341 50.2511 137.096 50.5206 137.865 50.7606C140.643 51.5883 143.518 52.0055 146.407 51.9999H147.954C148.198 51.9999 148.451 51.9999 148.699 51.9706C149.032 51.9461 150.036 51.8334 150.036 51.8334H150.125L152 51.5395V43.9711L149.553 44.2651C148.953 44.3385 148.334 44.3973 147.72 44.4512C147.105 44.5051 146.557 44.5198 146.008 44.5198C142.581 44.5198 139.74 43.8585 137.569 42.5603C135.552 41.4315 133.915 39.6821 132.881 37.5491C132.346 36.4149 131.949 35.2152 131.7 33.978C131.454 32.8946 131.333 31.7847 131.339 30.6715C131.339 30.6176 131.339 30.5686 131.339 30.5147C131.339 30.4608 131.339 30.4118 131.339 30.3579C131.333 29.2447 131.454 28.1348 131.7 27.0514C131.949 25.8142 132.346 24.6145 132.881 23.4803C133.915 21.3472 135.552 19.5978 137.569 18.469C139.754 17.1709 142.595 16.5096 146.008 16.5096C146.557 16.5096 147.134 16.5096 147.72 16.5782C148.306 16.6468 148.953 16.6909 149.553 16.7643L152 17.0582V9.47032L150.125 9.1764L150.036 9.16661Z" fill="#FDB913"/>
</g>
</svg>
