<svg width="275" height="42" viewBox="0 0 275 42" fill="none" xmlns="http://www.w3.org/2000/svg">
<g id="Zerocap">
<path id="Shape" fill-rule="evenodd" clip-rule="evenodd" d="M0 10.503L18.5 0L37 10.503V31.497L18.5 42L0 31.497V10.503ZM31.9513 13.3738L18.5 5.72996L5.04873 13.3738V28.638L18.5 36.27L31.9513 28.638V13.3738Z" fill="#F05125"/>
<path id="Path" fill-rule="evenodd" clip-rule="evenodd" d="M60 36.3881L76.428 11.1048H61.56V6H83.796V9.6119L67.416 34.8952H84V40H60V36.3881Z" fill="#231F20"/>
<path id="Path_2" fill-rule="evenodd" clip-rule="evenodd" d="M92 6H112.529V11.1048H98.038V19.7734H110.295V24.8782H98.038V34.8952H113V40H92V6Z" fill="#231F20"/>
<path id="Shape_2" fill-rule="evenodd" clip-rule="evenodd" d="M133.048 26.6841L140.298 40H147L138.976 25.8052C143.195 24.5623 145.996 20.5242 145.714 16.0892C145.714 8.49221 140.31 6 133.321 6H122V40H127.952V26.6841H133.048ZM132.714 21.9405H127.952V10.864H132.714C137.393 10.864 139.857 12.2847 139.857 16.1254C139.857 19.966 137.345 21.9405 132.714 21.9405Z" fill="#231F20"/>
<path id="Shape_3" fill-rule="evenodd" clip-rule="evenodd" d="M167.03 5C158.137 5 152 11.4527 152 22.3387C152 33.2486 158.197 40 167.03 40C175.863 40 182 33.2247 182 22.3387C182 11.4527 175.923 5 167.03 5ZM167.03 10.21C172.325 10.21 175.815 14.7986 175.815 22.3387C175.815 29.8907 172.349 34.7781 166.994 34.7781C161.639 34.7781 158.149 29.8788 158.149 22.3387C158.149 14.7986 161.735 10.21 167.03 10.21Z" fill="#231F20"/>
<path id="Path_3" fill-rule="evenodd" clip-rule="evenodd" d="M201.739 5C205.399 5.05008 208.875 6.59748 211.351 9.27784L208.023 12.9941C206.413 11.2391 204.14 10.2303 201.751 10.2099C196.201 10.2099 192.14 14.8581 192.14 22.4459C192.14 30.0337 195.828 34.7776 201.475 34.7776C204.266 34.8032 206.917 33.5682 208.684 31.4198L212 35.0883C209.399 38.2324 205.508 40.0378 201.415 39.9994C192.8 39.9994 186 33.7977 186 22.6013C186 11.4048 193.029 5 201.739 5Z" fill="#231F20"/>
<path id="Shape_4" fill-rule="evenodd" clip-rule="evenodd" d="M224.805 30.7744H236.052L238.638 40H245L233.991 6H226.997L216 40H222.172L224.805 30.7744ZM233.514 21.8739L234.706 26.0411H226.115L227.307 21.8739C228.391 18.2848 229.368 14.4428 230.297 10.6369H230.476C231.453 14.3826 232.478 18.2607 233.514 21.8739Z" fill="#231F20"/>
<path id="Shape_5" fill-rule="evenodd" clip-rule="evenodd" d="M262.282 6H251L251.012 40H256.95V27.5269H262.282C269.466 27.5269 275 24.0475 275 16.4986C275 8.60057 269.62 6 262.282 6ZM269.157 16.4986C269.157 20.6643 266.794 22.687 261.771 22.687H256.95V10.8279H261.771C266.64 10.8279 269.157 12.3329 269.157 16.4986Z" fill="#231F20"/>
</g>
</svg>
