<?xml version="1.0" encoding="utf-8"?>
<!-- Generator: Adobe Illustrator 22.1.0, SVG Export Plug-In . SVG Version: 6.00 Build 0)  -->
<svg version="1.1" id="Layer_1" xmlns="http://www.w3.org/2000/svg" xmlns:xlink="http://www.w3.org/1999/xlink" x="0px" y="0px"
	 viewBox="0 0 80 80" style="enable-background:new 0 0 80 80;" xml:space="preserve">
<style type="text/css">
	.st0{fill:#1E2739;}
</style>
<path class="st0" d="M55.7,31.2c5.2-2.3,8.8-7.4,8.8-13.4c0-8.1-6.6-14.6-14.6-14.6S35.3,9.7,35.3,17.8c0,1.8,0.3,3.5,0.9,5.1
	c-1.9-0.9-4-1.4-6.3-1.4c-8.1,0-14.6,6.6-14.6,14.6c0,6,3.7,11.2,8.9,13.5c-7,3-12,11.3-12,21c0,1.8,0.2,3.6,0.5,5.3l0.2,1h34.2
	l0.2-1c0.3-1.7,0.5-3.5,0.5-5.3c0-4.5-1.1-8.6-2.9-12.1h22.2l0.2-1c0.3-1.7,0.5-3.5,0.5-5.3C67.8,42.5,62.8,34.2,55.7,31.2z
	 M49.9,5.5c6.8,0,12.2,5.5,12.2,12.2S56.7,30,49.9,30s-12.2-5.5-12.2-12.2S43.2,5.5,49.9,5.5z M17.7,36.1c0-6.8,5.5-12.2,12.2-12.2
	c5.5,0,10.2,3.7,11.7,8.7c0.3,0.8,0.4,1.7,0.5,2.6c0,0.3,0,0.6,0,1c0,4.9-2.9,9.2-7.1,11.1c-0.8,0.4-1.7,0.7-2.6,0.9
	c-0.8,0.2-1.7,0.3-2.5,0.3C23.2,48.4,17.7,42.9,17.7,36.1z M45.4,70.6c0,1.3-0.1,2.6-0.3,3.9H14.9c-0.2-1.3-0.3-2.6-0.3-3.9
	c0-10.9,6.9-19.8,15.4-19.8c0.7,0,1.5,0.1,2.2,0.2c0.8,0.1,1.6,0.4,2.4,0.7c2.2,0.9,4.3,2.4,5.9,4.4c0.6,0.7,1.2,1.5,1.7,2.4
	C44.2,61.9,45.4,66,45.4,70.6z M65.1,56.1H43.5c-2-3-4.7-5.2-7.7-6.5c5.2-2.3,8.8-7.4,8.8-13.4c0-0.8-0.1-1.6-0.2-2.4
	c1.7-0.9,3.6-1.4,5.6-1.4c8.5,0,15.4,8.9,15.4,19.8C65.4,53.5,65.3,54.8,65.1,56.1z"/>
</svg>
