<svg width="200" height="33" viewBox="0 0 200 33" fill="none" xmlns="http://www.w3.org/2000/svg">
<path fill-rule="evenodd" clip-rule="evenodd" d="M91.6816 13.5662C91.6816 15.8267 92.7537 16.8489 95.591 17.2855C97.4877 17.5774 98.1649 18.0158 98.1649 19.0362C98.1649 19.9309 97.5442 20.3673 96.3042 20.3673C94.9327 20.3673 94.2383 19.8396 94.2383 18.6348H91.4952C91.4952 21.3513 92.9779 22.5928 96.2291 22.5928C99.4237 22.5928 100.983 21.3349 100.983 18.7625C100.983 16.4292 99.9505 15.3172 96.9626 14.8973C95.1585 14.6418 94.5016 14.2234 94.5016 13.2925C94.5016 12.4727 95.1019 11.9981 96.2666 11.9981C97.4877 11.9981 98.0708 12.5273 98.0708 13.6029H100.814C100.814 10.9956 99.3296 9.75586 96.3229 9.75586C93.2787 9.75586 91.6816 11.032 91.6816 13.5662ZM103.243 17.5592V14.7878C103.243 11.3409 104.819 9.75586 108.202 9.75586C111.472 9.75586 113.013 11.2329 113.088 14.441H110.402C110.345 12.8012 109.743 12.1076 108.24 12.1076C106.661 12.1076 106.061 12.8726 106.061 14.8426V17.5045C106.061 19.4743 106.661 20.2396 108.24 20.2396C109.743 20.2396 110.345 19.5474 110.402 17.9245H113.088C113.013 21.1158 111.472 22.5928 108.202 22.5928C104.819 22.5928 103.243 21.0063 103.243 17.5592ZM178.407 17.5592V14.7878C178.407 11.3409 179.985 9.75586 183.366 9.75586C186.636 9.75586 188.178 11.2329 188.253 14.441H185.566C185.509 12.8012 184.908 12.1076 183.404 12.1076C181.826 12.1076 181.225 12.8726 181.225 14.8426V17.5045C181.225 19.4743 181.826 20.2396 183.404 20.2396C184.908 20.2396 185.509 19.5474 185.566 17.9245H188.253C188.178 21.1158 186.636 22.5928 183.366 22.5928C179.985 22.5928 178.407 21.0063 178.407 17.5592ZM191.056 22.3738V9.97342H199.812V12.3267H193.874V14.8973H198.873V17.2306H193.874V20.022H200V22.3738H191.056ZM172.729 9.97342V17.7965L168.387 9.97342H165.399V22.3738H168.069V14.0228L172.71 22.3738H175.397V9.97342H172.729ZM153.727 22.3738V9.97342H162.483V12.3267H156.545V14.8973H161.544V17.2306H156.545V20.022H162.671V22.3738H153.727ZM141.021 9.97342V22.3738H145.776C149.213 22.3738 150.736 20.8601 150.736 17.4863V14.8609C150.736 11.5051 149.213 9.97342 145.776 9.97342H141.021ZM145.381 12.3082H143.84V20.0387H145.381C147.279 20.0387 147.917 19.3648 147.917 17.4314V14.9155C147.917 12.9821 147.279 12.3082 145.381 12.3082ZM134.892 9.97342V17.7965L130.552 9.97342H127.564V22.3738H130.232V14.0228L134.873 22.3738H137.56V9.97342H134.892ZM115.891 22.3738V9.97342H124.648V12.3267H118.71V14.8973H123.709V17.2306H118.71V20.022H124.836V22.3738H115.891ZM86.248 9.97342V17.7965L81.9074 9.97342H78.9198V22.3738H81.5879V14.0228L86.2292 22.3738H88.9161V9.97342H86.248ZM65.3492 22.3738L69.6332 9.97342H72.5457L76.83 22.3738H73.8421L73.035 19.876H69.0143L68.2052 22.3738H65.3492ZM71.0236 13.0734L72.3406 17.5959H69.7085L71.0236 13.0734ZM54.1848 22.3738V9.97342H59.4078C62.5461 9.97342 63.7859 11.1234 63.7859 13.8948C63.7859 15.918 63.1105 17.0864 61.5131 17.541L64.2752 22.3738H61.0616L58.5254 17.7965H57.0033V22.3738H54.1848ZM57.0033 12.3082H59.1067C60.4802 12.3082 60.9675 12.7631 60.9675 13.8948C60.9675 15.0068 60.4802 15.4631 59.1067 15.4631H57.0033V12.3082ZM42.3621 12.3631V9.97342H52.0197V12.3631H48.6009V22.3738H45.7824V12.3631H42.3621Z" fill="#C0C2CC"/>
<path fill-rule="evenodd" clip-rule="evenodd" d="M0 16.0462C0 24.9083 7.18413 32.0924 16.0462 32.0924C24.9083 32.0924 32.0924 24.9083 32.0924 16.0462C32.0924 7.18413 24.9083 0 16.0462 0C7.18413 0 0 7.18413 0 16.0462ZM12.8631 15.5779C11.9362 14.6749 11.4615 13.6864 11.4615 12.5899C11.4615 10.0209 13.3822 8.07882 15.9947 8.07882C18.6071 8.07882 20.5276 10.0209 20.5276 12.5899C20.5276 13.7345 20.0334 14.7121 19.0544 15.5751L18.9296 15.6851L17.7734 14.3867L17.8994 14.2756C18.5106 13.7367 18.785 13.2134 18.785 12.5899C18.785 10.974 17.6379 9.81441 15.9947 9.81441C14.3513 9.81441 13.2042 10.9739 13.2042 12.5899C13.2042 13.5711 13.9093 14.4237 15.5744 15.4558L15.721 15.5367C15.8064 15.5883 15.8524 15.6143 15.9177 15.6455C16.3999 15.9129 16.7615 16.1135 17.0024 16.2473L17.2734 16.398L17.3414 16.4359C17.5076 16.5259 17.5086 16.5265 17.6336 16.5935L18.3373 16.9807C18.6674 17.1692 18.9295 17.3319 19.1636 17.4941C19.2624 17.5627 19.355 17.6305 19.4419 17.698C20.8992 18.8329 21.6028 20.6714 21.5603 23.1608L21.5458 24.0136H10.7509L10.7273 23.8743L10.6287 23.2901C10.2694 21.1646 10.8963 19.2904 12.4767 17.7596L12.5961 17.6439L13.8122 18.8869L13.6916 19.0037C12.7046 19.9599 12.2404 21.0333 12.2746 22.2782H19.7966C19.6901 20.7826 19.2122 19.7223 18.3689 19.0654C18.3078 19.0181 18.2409 18.9691 18.1681 18.9185C17.8929 18.7279 17.5451 18.5214 17.0157 18.2334C17.0079 18.2292 16.9165 18.1801 16.7961 18.1155C16.6162 18.019 16.3717 17.8878 16.2447 17.8195C16.0335 17.706 15.8647 17.6148 15.7355 17.5446C15.6215 17.4825 15.6215 17.4825 15.556 17.4464C14.3095 16.7568 13.5054 16.2038 12.8631 15.5779Z" fill="#C0C2CC"/>
</svg>
